<svg xmlns="http://www.w3.org/2000/svg" width="259" height="45" viewBox="0 0 259 45"><g transform="translate(-32 -477)"><rect width="259" height="45" rx="3" transform="translate(32 477)" fill="#f18070"/><text transform="translate(69 505)" fill="#001489" font-size="16" font-family="MuseoSans-500, Museo Sans" font-weight="500"><tspan x="0" y="0">Search Congress Materials</tspan></text><g transform="translate(40 487)"><rect width="24" height="24" rx="12" fill="none"/><path d="M7.823,9.712a.735.735,0,0,0,0,1.067h0a.8.8,0,0,0,1.106,0l4.785-4.613a.919.919,0,0,0,0-1.333L8.929.221a.8.8,0,0,0-1.106,0h0a.735.735,0,0,0,0,1.067L11.41,4.746H.782A.769.769,0,0,0,0,5.5H0a.769.769,0,0,0,.782.754H11.41Z" transform="translate(5 7)" fill="#001489"/></g></g></svg>