<svg xmlns="http://www.w3.org/2000/svg" width="41" height="41" viewBox="0 0 41 41"><circle cx="20.5" cy="20.5" r="20.5" fill="#e6f5fb"/><g transform="translate(9.32 11.261)"><path d="M33.226,24.27v.788h.288v13.2a.083.083,0,0,1-.08.083H26.146a1.323,1.323,0,0,0-1.258.906l-.041.124h0a.555.555,0,0,1-.525.377h-1.46a.555.555,0,0,1-.525-.377l-.041-.124h0a1.323,1.323,0,0,0-1.258-.906h-7.3a.084.084,0,0,1-.081-.083v-13.2h.288V24.27H12.89V38.256a.866.866,0,0,0,.865.865h7.3a.555.555,0,0,1,.522.357l.041.124a1.321,1.321,0,0,0,1.257.906h1.459a1.323,1.323,0,0,0,1.258-.906l.023-.124a.547.547,0,0,1,.522-.377h7.3a.866.866,0,0,0,.865-.865V24.27Z" transform="translate(-12.89 -22.853)" fill="#001489"/><path d="M20.224,33.743h5.789a1.474,1.474,0,0,1,1.052.435L28.2,35.309l1.131-1.131a1.474,1.474,0,0,1,1.052-.435h5.789a.865.865,0,0,0,.865-.865V20.224a.866.866,0,0,0-.865-.865H30.38A5.656,5.656,0,0,0,28.2,20.651a5.656,5.656,0,0,0-2.183-1.292H20.224a.866.866,0,0,0-.865.865V32.887a.865.865,0,0,0,.865.856Zm-.083-13.519a.083.083,0,0,1,.083-.083h5.768a7.6,7.6,0,0,1,1.806,1.2v8.173h.773V21.343a7.867,7.867,0,0,1,1.8-1.2h5.8a.083.083,0,0,1,.083.083V32.887a.083.083,0,0,1-.083.083H30.38a2.242,2.242,0,0,0-1.607.66l-.577.577-.577-.577a2.242,2.242,0,0,0-1.6-.66h-5.8a.083.083,0,0,1-.083-.083Z" transform="translate(-17.493 -19.359)" fill="#001489"/></g></svg>