<svg xmlns="http://www.w3.org/2000/svg" xmlns:xlink="http://www.w3.org/1999/xlink" width="41" height="41" viewBox="0 0 41 41"><defs><clipPath id="a"><rect width="13.23" height="24.25" fill="#001489"/></clipPath></defs><circle cx="20.5" cy="20.5" r="20.5" fill="#e6f5fb" opacity="0.998"/><g transform="translate(14.057 8.2)" clip-path="url(#a)"><path d="M12.864,0H4.723a.368.368,0,0,0-.259.107L1.751,2.821a.369.369,0,0,0-.107.259v7.837l-.016.023a.252.252,0,0,1-.024.028l-.008.009c-.069.13-1.748,3.3-1.583,4.8a11.936,11.936,0,0,0,2.1,4.9l.093.136h-.2a.366.366,0,0,0-.366.366v2.714a.366.366,0,0,0,.366.366h8.141a.366.366,0,0,0,.366-.366V21.172a.366.366,0,0,0-.366-.366H9.814l-.014-.07a3.053,3.053,0,0,1,.079-1.582,1.939,1.939,0,0,1,.516-.711l.009-.009a3.575,3.575,0,0,0,1.158-2.7l0-.082h1.3a.366.366,0,0,0,.366-.366V.367A.366.366,0,0,0,12.864,0M4.357,1.25V2.715H2.892ZM9.785,23.52H2.375V21.537h7.41Zm1.046-7.77a2.848,2.848,0,0,1-.911,2.135h0l-.037.038a2.591,2.591,0,0,0-.695.99,3.747,3.747,0,0,0-.139,1.793l.016.1H3.114l-.026-.035A12.177,12.177,0,0,1,.739,15.694a7.218,7.218,0,0,1,.738-2.752l.166-.393v2.744a.366.366,0,0,0,.366.366h.524l-.1.138-.221.3a.366.366,0,0,0,.352.578A.361.361,0,0,0,2.8,16.53c.008-.011.285-.39.674-.916l.009-.013.013-.008a.351.351,0,0,0,.15-.2l0-.016.01-.013c.832-1.122,1.907-2.55,2.307-2.989a.543.543,0,0,1,.694-.08c.347.23.368.793.056,1.47A8.226,8.226,0,0,1,4.811,16.6a.365.365,0,0,0-.081.5l.013.025a4.053,4.053,0,0,1,.733,1.784.366.366,0,1,0,.731,0,4.144,4.144,0,0,0-.667-1.894l-.035-.057.047-.048a7.961,7.961,0,0,0,.955-1.232l.034-.052.06.015.025.007a.157.157,0,0,0,.04.009h4.17Zm1.668-.823H6.953L7.02,14.8c.134-.254.253-.492.362-.728.568-1.23.209-2.039-.315-2.386a1.275,1.275,0,0,0-1.639.2c-.411.452-1.493,1.887-2.328,3.011l-.026.035h-.7V3.446H4.723a.366.366,0,0,0,.366-.366V.733H12.5Z" transform="translate(0 -0.001)" fill="#001489"/></g></svg>