<svg xmlns="http://www.w3.org/2000/svg" width="41" height="41" viewBox="0 0 41 41"><circle cx="20.5" cy="20.5" r="20.5" fill="#e6f5fb" opacity="0.998"/><g transform="translate(15.575 6.769)"><path d="M49,80.615a.28.28,0,0,0,.28.28,2.154,2.154,0,0,0,2.154-2.154.28.28,0,1,0-.56,0,1.594,1.594,0,0,1-1.594,1.594A.28.28,0,0,0,49,80.615Z" transform="translate(-43.963 -54.271)" fill="#001489"/><path d="M51.189,12.057a1.119,1.119,0,1,0-.791-.328,1.121,1.121,0,0,0,.791.328Zm0-1.679a.557.557,0,1,0,0,.005Z" transform="translate(-44.666 -9.819)" fill="#001489"/><path d="M43.53,36.3a.87.87,0,1,0-.87-.87.871.871,0,0,0,.87.87Zm0-1.184a.31.31,0,1,1-.31.31.311.311,0,0,1,.31-.31Z" transform="translate(-40.225 -25.974)" fill="#001489"/><path d="M45.65,53.641a.87.87,0,1,0,.87.87.872.872,0,0,0-.87-.87Zm0,1.184a.311.311,0,1,1,.31-.314.314.314,0,0,1-.31.314Z" transform="translate(-41.532 -38.433)" fill="#001489"/><path d="M47.23,77.779a.42.42,0,0,1-.839,0,.42.42,0,0,1,.839,0" transform="translate(-42.664 -53.477)" fill="#001489"/><path d="M53.409,64.279a.42.42,0,1,1-.839,0,.42.42,0,0,1,.839,0" transform="translate(-46.561 -45.257)" fill="#001489"/><path d="M45.793,21.539H36.661a.356.356,0,0,0-.36.352V23.2a.351.351,0,0,0,.105.249.363.363,0,0,0,.254.1h.694v1.477h0a.36.36,0,0,0,.719,0V23.556h6.256v6.936H38.984a.352.352,0,1,0,0,.7h5.346V41.953a3.128,3.128,0,0,1-6.256,0V26.672a.36.36,0,0,0-.719,0V41.953a3.848,3.848,0,0,0,7.694,0v-18.4h.744a.363.363,0,0,0,.254-.1.351.351,0,0,0,.105-.249V21.892a.349.349,0,0,0-.105-.249.363.363,0,0,0-.254-.1Zm-.36,1.311H37.02v-.607h8.413Z" transform="translate(-36.301 -18.26)" fill="#001489"/></g></svg>