<svg xmlns="http://www.w3.org/2000/svg" xmlns:xlink="http://www.w3.org/1999/xlink" width="45" height="45" viewBox="0 0 45 45"><defs><clipPath id="a"><rect width="30.266" height="20.896" fill="#001489" stroke="#001489" stroke-linecap="round" stroke-width="0.25"/></clipPath></defs><circle cx="22.5" cy="22.5" r="22.5" fill="#e6f5fb" opacity="0.998"/><g transform="translate(7.367 12.052)" clip-path="url(#a)"><path d="M30.335.826H.922A.378.378,0,0,1,.593.413.378.378,0,0,1,.922,0H30.335a.378.378,0,0,1,.329.413.378.378,0,0,1-.329.413" transform="translate(-0.398 0)" fill="#001489" stroke="#001489" stroke-linecap="round" stroke-width="0.25"/><path d="M27.882,12.741c-.829,0-1.2-1.08-1.528-2.033-.26-.754-.528-1.534-.924-1.534s-.665.78-.923,1.534c-.328.953-.7,2.033-1.528,2.033s-1.2-1.08-1.528-2.033c-.259-.754-.527-1.534-.924-1.534s-.665.78-.923,1.534c-.328.953-.7,2.033-1.528,2.033s-1.2-1.08-1.527-2.033c-.259-.754-.527-1.534-.923-1.534s-.664.78-.923,1.534c-.327.953-.7,2.033-1.527,2.033s-1.2-1.08-1.527-2.033c-.259-.754-.527-1.534-.923-1.534s-.664.78-.922,1.534c-.327.953-.7,2.033-1.527,2.033s-1.2-1.08-1.528-2.033c-.259-.754-.527-1.534-.923-1.534s-.664.78-.923,1.534c-.327.953-.7,2.033-1.527,2.033s-1.2-1.08-1.527-2.033c-.259-.754-.527-1.534-.923-1.534a.424.424,0,0,1,0-.826c.829,0,1.2,1.08,1.527,2.033.259.754.527,1.534.923,1.534s.664-.78.923-1.534c.327-.953.7-2.033,1.527-2.033s1.2,1.08,1.528,2.033c.259.754.527,1.534.923,1.534s.664-.78.922-1.534c.327-.953.7-2.033,1.527-2.033s1.2,1.08,1.527,2.033c.259.754.527,1.534.923,1.534s.664-.78.923-1.534c.327-.953.7-2.033,1.527-2.033s1.2,1.08,1.527,2.033c.259.754.527,1.534.923,1.534s.665-.78.924-1.534c.327-.953.7-2.033,1.528-2.033s1.2,1.08,1.528,2.033c.259.754.527,1.534.924,1.534s.664-.78.923-1.534c.328-.953.7-2.033,1.528-2.033s1.2,1.08,1.528,2.033c.26.754.527,1.534.924,1.534s.665-.78.924-1.534c.328-.953.7-2.033,1.528-2.033a.424.424,0,0,1,0,.826c-.4,0-.665.78-.924,1.534-.328.953-.7,2.033-1.528,2.033" transform="translate(-0.398 -4.902)" fill="#001489" stroke="#001489" stroke-linecap="round" stroke-width="0.25"/><path d="M30.335,49.443H.922a.424.424,0,0,1,0-.826H30.335a.424.424,0,0,1,0,.826" transform="translate(-0.398 -28.547)" fill="#001489" stroke="#001489" stroke-linecap="round" stroke-width="0.25"/><path d="M14.483,36.6a1.918,1.918,0,0,1,0-3.739,1.918,1.918,0,0,1,0,3.739m0-2.914a1.071,1.071,0,0,0,0,2.088,1.071,1.071,0,0,0,0-2.088" transform="translate(-8.719 -19.295)" fill="#001489" stroke="#001489" stroke-linecap="round" stroke-width="0.25"/><path d="M2.075,31.242A2.387,2.387,0,0,1,0,28.638a2.387,2.387,0,0,1,2.075-2.6,2.387,2.387,0,0,1,2.075,2.6,2.387,2.387,0,0,1-2.075,2.6m0-4.381A1.63,1.63,0,0,0,.658,28.638a1.63,1.63,0,0,0,1.417,1.778,1.63,1.63,0,0,0,1.417-1.778,1.63,1.63,0,0,0-1.417-1.778" transform="translate(0 -15.287)" fill="#001489" stroke="#001489" stroke-linecap="round" stroke-width="0.25"/><path d="M38.434,27.133a1.4,1.4,0,0,1-1.216-1.525,1.247,1.247,0,1,1,2.431,0,1.4,1.4,0,0,1-1.216,1.525m0-2.225a.718.718,0,1,0,.558.7.642.642,0,0,0-.558-.7" transform="translate(-24.974 -14.14)" fill="#001489" stroke="#001489" stroke-linecap="round" stroke-width="0.25"/><path d="M25.723,31.242a2.387,2.387,0,0,1-2.075-2.6,2.387,2.387,0,0,1,2.075-2.6,2.387,2.387,0,0,1,2.075,2.6,2.387,2.387,0,0,1-2.075,2.6m0-4.381a1.63,1.63,0,0,0-1.417,1.778,1.63,1.63,0,0,0,1.417,1.778,1.63,1.63,0,0,0,1.417-1.778,1.63,1.63,0,0,0-1.417-1.778" transform="translate(-15.868 -15.287)" fill="#001489" stroke="#001489" stroke-linecap="round" stroke-width="0.25"/><path d="M61.343,36.6a1.918,1.918,0,1,1,1.49-1.87,1.715,1.715,0,0,1-1.49,1.87m0-2.914a1.071,1.071,0,1,0,.832,1.044.957.957,0,0,0-.832-1.044" transform="translate(-40.163 -19.295)" fill="#001489" stroke="#001489" stroke-linecap="round" stroke-width="0.25"/><path d="M48.935,31.242a2.387,2.387,0,0,1-2.075-2.6,2.387,2.387,0,0,1,2.075-2.6,2.387,2.387,0,0,1,2.075,2.6,2.387,2.387,0,0,1-2.075,2.6m0-4.381a1.63,1.63,0,0,0-1.417,1.778,1.453,1.453,0,1,0,2.833,0,1.63,1.63,0,0,0-1.417-1.778" transform="translate(-31.444 -15.287)" fill="#001489" stroke="#001489" stroke-linecap="round" stroke-width="0.25"/><path d="M84.735,27.133a1.4,1.4,0,0,1-1.216-1.525,1.247,1.247,0,1,1,2.431,0,1.4,1.4,0,0,1-1.216,1.525m0-2.225a.718.718,0,1,0,.558.7.642.642,0,0,0-.558-.7" transform="translate(-56.043 -14.14)" fill="#001489" stroke="#001489" stroke-linecap="round" stroke-width="0.25"/><path d="M72.024,31.242a2.387,2.387,0,0,1-2.075-2.6,2.128,2.128,0,1,1,4.149,0,2.387,2.387,0,0,1-2.075,2.6m0-4.381a1.63,1.63,0,0,0-1.417,1.778,1.453,1.453,0,1,0,2.833,0,1.63,1.63,0,0,0-1.417-1.778" transform="translate(-46.938 -15.287)" fill="#001489" stroke="#001489" stroke-linecap="round" stroke-width="0.25"/></g></svg>