<svg xmlns="http://www.w3.org/2000/svg" width="45" height="45" viewBox="0 0 45 45"><circle cx="22.5" cy="22.5" r="22.5" fill="#e6f5fb" opacity="0.998"/><g transform="translate(17.154 6.822)"><path d="M49,81.052a.337.337,0,0,0,.337.337A2.592,2.592,0,0,0,51.928,78.8a.337.337,0,1,0-.673,0,1.918,1.918,0,0,1-1.918,1.918A.337.337,0,0,0,49,81.052Z" transform="translate(-43.727 -51.044)" fill="#001489"/><path d="M51.416,12.512a1.347,1.347,0,1,0-.952-.394,1.348,1.348,0,0,0,.952.394Zm0-2.02a.67.67,0,1,0,0,.007Z" transform="translate(-44.391 -9.819)" fill="#001489"/><path d="M43.707,36.654a1.047,1.047,0,1,0-1.047-1.047,1.048,1.048,0,0,0,1.047,1.047Zm0-1.424a.373.373,0,1,1-.373.373.374.374,0,0,1,.373-.373Z" transform="translate(-40.078 -24.793)" fill="#001489"/><path d="M45.827,53.641a1.047,1.047,0,1,0,1.047,1.047,1.049,1.049,0,0,0-1.047-1.047Zm0,1.424a.374.374,0,1,1,.373-.377.378.378,0,0,1-.373.377Z" transform="translate(-41.337 -36.341)" fill="#001489"/><path d="M47.4,77.864a.5.5,0,0,1-1.01,0,.5.5,0,0,1,1.01,0" transform="translate(-42.387 -50.313)" fill="#001489"/><path d="M53.58,64.364a.5.5,0,0,1-1.01,0,.5.5,0,0,1,1.01,0" transform="translate(-46.113 -42.656)" fill="#001489"/><path d="M46.6,21.539H36.691a.4.4,0,0,0-.39.4v1.487a.407.407,0,0,0,.114.282.386.386,0,0,0,.276.117h.753V25.5a.39.39,0,1,0,.781,0V23.825h6.79v7.861h-5.8a.4.4,0,0,0,0,.8h5.8V44.676a3.4,3.4,0,1,1-6.79,0V27.356a.39.39,0,1,0-.781,0V44.676a4.177,4.177,0,1,0,8.351,0V23.825H46.6a.386.386,0,0,0,.276-.117.407.407,0,0,0,.114-.282V21.939a.4.4,0,0,0-.114-.282.386.386,0,0,0-.276-.117Zm-.39,1.485-9.132,0v-.688h9.132Z" transform="translate(-36.301 -17.594)" fill="#001489"/></g></svg>