<svg xmlns="http://www.w3.org/2000/svg" xmlns:xlink="http://www.w3.org/1999/xlink" width="45" height="45" viewBox="0 0 45 45"><defs><clipPath id="a"><rect width="14.52" height="26.616" fill="#001489"/></clipPath></defs><g transform="translate(-138 -999)"><circle cx="22.5" cy="22.5" r="22.5" transform="translate(138 999)" fill="#e6f5fb" opacity="0.998"/><g transform="translate(153.429 1008)" clip-path="url(#a)"><path d="M14.119,0H5.184A.4.4,0,0,0,4.9.118L1.922,3.1a.4.4,0,0,0-.117.284v8.6l-.018.025a.276.276,0,0,1-.027.031.089.089,0,0,0-.009.01c-.076.143-1.919,3.622-1.738,5.264a13.1,13.1,0,0,0,2.309,5.375l.1.149H2.206a.4.4,0,0,0-.4.4v2.978a.4.4,0,0,0,.4.4h8.935a.4.4,0,0,0,.4-.4V23.237a.4.4,0,0,0-.4-.4h-.37l-.015-.077a3.351,3.351,0,0,1,.087-1.737,2.128,2.128,0,0,1,.567-.78l.01-.01a3.924,3.924,0,0,0,1.271-2.96l.005-.09h1.423a.4.4,0,0,0,.4-.4V.4a.4.4,0,0,0-.4-.4M4.783,1.371V2.979H3.175Zm5.957,24.443H2.607V23.638h8.133Zm1.148-8.528a3.126,3.126,0,0,1-1,2.343h0l-.041.042a2.844,2.844,0,0,0-.762,1.087,4.112,4.112,0,0,0-.152,1.968l.017.11H3.417L3.389,22.8A13.365,13.365,0,0,1,.811,17.225a7.922,7.922,0,0,1,.81-3.021l.183-.432v3.011a.4.4,0,0,0,.4.4H2.78l-.111.151-.242.332a.4.4,0,0,0,.386.634.4.4,0,0,0,.261-.16c.008-.012.312-.428.74-1.006l.01-.014.014-.009A.385.385,0,0,0,4,16.891l0-.017.01-.014c.913-1.231,2.093-2.8,2.532-3.28a.6.6,0,0,1,.761-.088c.381.253.4.871.062,1.614A9.029,9.029,0,0,1,5.28,18.223a.4.4,0,0,0-.089.546l.015.027a4.449,4.449,0,0,1,.8,1.958.4.4,0,1,0,.8,0,4.548,4.548,0,0,0-.732-2.079l-.038-.063.051-.053a8.738,8.738,0,0,0,1.048-1.352l.037-.057.066.016.028.008a.172.172,0,0,0,.044.009h4.577Zm1.831-.9H7.631l.074-.14c.148-.278.277-.54.4-.8.623-1.35.23-2.238-.346-2.619a1.4,1.4,0,0,0-1.8.215c-.452.5-1.639,2.071-2.556,3.305l-.029.038H2.607V3.782H5.184a.4.4,0,0,0,.4-.4V.8h8.133Z" transform="translate(0 -0.001)" fill="#001489"/></g></g></svg>