<svg xmlns="http://www.w3.org/2000/svg" width="320" height="441.879" viewBox="0 0 320 441.879"><g transform="translate(0 -649)"><path d="M0,0H320V441.879H0Z" transform="translate(0 649)" fill="#fcdfdb"/><text transform="translate(40 866)" fill="#4b4f54" font-size="14" font-family="MuseoSans-300, Museo Sans" font-weight="300"><tspan x="0" y="13">Unapproved or off-label use</tspan><tspan x="0" y="30">Use during pregnancy</tspan><tspan x="0" y="47">Exposure to a drug during </tspan><tspan x="0" y="64">breastfeeding/lactation</tspan><tspan x="0" y="81">Overdose (whether intentional, </tspan><tspan x="0" y="98">accidental, or prescribed)</tspan><tspan x="0" y="115">Drug abuse or misuse</tspan><tspan x="0" y="132">Medication errors</tspan><tspan x="0" y="149">Drug–drug interactions</tspan><tspan x="0" y="166">Drug–food interactions</tspan><tspan x="0" y="183">Lack of therapeutic effect</tspan></text><text transform="translate(23 865)" fill="#001489" font-size="14" font-family="MuseoSans-300, Museo Sans" font-weight="300"><tspan x="0" y="13">•</tspan><tspan x="0" y="30">•</tspan><tspan x="0" y="47">•</tspan><tspan x="0" y="64"></tspan><tspan x="0" y="81">•</tspan><tspan x="0" y="98"></tspan><tspan x="0" y="115">•</tspan><tspan x="0" y="132">•</tspan><tspan x="0" y="149">•</tspan><tspan x="0" y="166">•</tspan><tspan x="0" y="183">•</tspan></text><text transform="translate(16 802.252)" fill="#4b4f54" font-size="14" font-family="MuseoSans-500, Museo Sans" font-weight="500"><tspan x="0" y="13">Additional safety information includes </tspan><tspan x="0" y="30">(but is not limited to) the following </tspan><tspan x="0" y="47">report types:</tspan></text><text transform="translate(16 706.252)" fill="#4b4f54" font-size="14" font-family="MuseoSans-300, Museo Sans" font-weight="300"><tspan x="0" y="13">Any untoward medical occurrence in a </tspan><tspan x="0" y="30">patient or clinical investigation subject </tspan><tspan x="0" y="47">administered a pharmaceutical product </tspan><tspan x="0" y="64">and which may or may not have a </tspan><tspan x="0" y="81">causal relationship with this treatment.</tspan></text><text transform="translate(16 672)" fill="#001489" font-size="18" font-family="MuseoSans-900, Museo Sans" font-weight="900"><tspan x="0" y="17">Adverse Event</tspan></text><g transform="translate(280 670)"><rect width="24" height="24" rx="12" fill="none"/><path d="M6.429,5,10,8.571,8.571,10,5,6.429,1.429,10,0,8.571,3.571,5,0,1.429,1.429,0,5,3.571,8.571,0,10,1.429Z" transform="translate(7 7)" fill="#001489"/></g></g></svg>