<svg xmlns="http://www.w3.org/2000/svg" width="163" height="21" viewBox="0 0 163 21"><text transform="translate(26 3)" fill="#001489" font-size="12" font-family="MuseoSans-500, Museo Sans" font-weight="500"><tspan x="0" y="11">Full episode information</tspan></text><rect width="21" height="21" rx="10.5" fill="none"/><path d="M6.845,8.5a.643.643,0,0,0,0,.933h0a.7.7,0,0,0,.968,0L12,5.4a.8.8,0,0,0,0-1.167L7.813.193a.7.7,0,0,0-.968,0h0a.643.643,0,0,0,0,.933L9.984,4.152H.684A.673.673,0,0,0,0,4.812H0a.673.673,0,0,0,.684.66h9.3Z" transform="translate(4.375 6.125)" fill="#001489"/></svg>