<svg xmlns="http://www.w3.org/2000/svg" width="62" height="24" viewBox="0 0 62 24"><g transform="translate(-16 -1963)"><text transform="translate(41 1981)" fill="#001489" font-size="16" font-family="MuseoSans-700, Museo Sans" font-weight="700"><tspan x="0" y="0">Back</tspan></text><g transform="translate(16 1963)"><rect width="24" height="24" rx="12" fill="none"/><path d="M6.217,9.707a.74.74,0,0,1,.005,1.072.793.793,0,0,1-1.1,0L.231,6.036a.738.738,0,0,1,0-1.073L5.119.224a.8.8,0,0,1,1.1,0,.739.739,0,0,1-.005,1.072L2.656,4.745H13.22a.755.755,0,1,1,0,1.508H2.656Z" transform="translate(5 7)" fill="#001489"/></g></g></svg>