<svg xmlns="http://www.w3.org/2000/svg" xmlns:xlink="http://www.w3.org/1999/xlink" width="61.648" height="62.349" viewBox="0 0 61.648 62.349"><defs><clipPath id="a"><rect width="40.588" height="34.634" transform="translate(0 0)" fill="none" stroke="#001489" stroke-width="0.9"/></clipPath></defs><g transform="translate(-636 -349)"><ellipse cx="30.824" cy="31.174" rx="30.824" ry="31.174" transform="translate(636 349)" fill="#e6f5fb"/><g transform="translate(646.53 361.315)" clip-path="url(#a)"><path d="M39.674,73.61H1.568A1.52,1.52,0,0,1,.05,72.092V58.641H41.192V72.092A1.52,1.52,0,0,1,39.674,73.61ZM.95,59.541V72.092a.619.619,0,0,0,.618.618H39.674a.619.619,0,0,0,.618-.618V59.541Z" transform="translate(-0.327 -38.699)" fill="#001489"/><path d="M.724,52.8l-.448-.781,6.243-3.582H9.659v.9h-2.9Z" transform="translate(-0.328 -32.014)" fill="#001489"/><path d="M99.452,52.8l-6.33-3.467H90.477v-.9h2.876l6.532,3.578Z" transform="translate(-59.253 -32.014)" fill="#001489"/><path d="M25.529.45H0v-.9H25.529Z" transform="translate(7.578 18.579)" fill="#001489"/><path d="M49.415,23.63h-.9V11.7L45.792,8.262h-18.3V23.63h-.9V7.362H46.227l3.188,4.029Z" transform="translate(-17.709 -5.116)" fill="#001489"/><path d="M16.272.45H0v-.9H16.272Z" transform="translate(11.963 12.343)" fill="#001489"/><path d="M16.272.45H0v-.9H16.272Z" transform="translate(11.963 16.143)" fill="#001489"/><path d="M-.45-.45H16.82V4.328H-.45Zm16.37.9H.45V3.428H15.92Z" transform="translate(11.963 5.717)" fill="#001489"/><path d="M-.45-.45H34.879V7.985H-.45Zm34.429.9H.45V7.085H33.979Z" transform="translate(3.145 24.62)" fill="#001489"/><path d="M40.009.45H0v-.9H40.009Z" transform="translate(0.179 22.346)" fill="#001489"/><path d="M0,.515l0-.9L29.686-.45l0,.9Z" transform="translate(5.515 28.323)" fill="#001489"/><path d="M13.642,16.158,9.767,12.283h2.975V0h.9Zm-1.7-2.975.8.8v-.8Z" transform="translate(-7.108 0)" fill="#001489"/><path d="M98.685,16.158V0h.9V12.283h2.975Zm.9-2.975v.8l.8-.8Z" transform="translate(-64.924 0)" fill="#001489"/></g></g></svg>