<svg xmlns="http://www.w3.org/2000/svg" width="36" height="35.357" viewBox="0 0 36 35.357"><path d="M1089.164,2182.219l-36,35.357h36Z" transform="translate(-1053.164 -2182.219)" fill="#71c5e8"/><g transform="translate(16.865 13.223)"><g transform="translate(0)"><rect width="17.135" height="17.135" rx="8.567" transform="translate(0)" fill="none"/></g><path d="M5.747,7.136a.54.54,0,0,0,0,.784h0a.59.59,0,0,0,.813,0L10.075,4.53a.675.675,0,0,0,0-.979L6.56.162a.59.59,0,0,0-.813,0h0a.54.54,0,0,0,0,.784L8.383,3.487H.575A.565.565,0,0,0,0,4.041H0a.565.565,0,0,0,.575.554H8.383Z" transform="translate(3.673 5.143)" fill="#001489"/></g></svg>