<svg xmlns="http://www.w3.org/2000/svg" width="40" height="40" viewBox="0 0 40 40"><rect width="40" height="40" rx="20" fill="none"/><g transform="translate(8.333 11.667)" fill="#001489" stroke-linecap="round" stroke-miterlimit="10"><path d="M 23.08399963378906 16.41650009155273 L 0.2499998211860657 16.41650009155273 L 0.2499998211860657 13.58349990844727 L 23.08399963378906 13.58349990844727 L 23.08399963378906 16.41650009155273 Z M 23.08399963378906 9.750499725341797 L 0.2499998211860657 9.750499725341797 L 0.2499998211860657 6.915999889373779 L 23.08399963378906 6.915999889373779 L 23.08399963378906 9.750499725341797 Z M 23.08399963378906 3.08299994468689 L 0.2499998211860657 3.08299994468689 L 0.2499998211860657 0.2500000596046448 L 23.08399963378906 0.2500000596046448 L 23.08399963378906 3.08299994468689 Z" stroke="none"/><path d="M 22.83399963378906 16.16650009155273 L 22.83399963378906 13.83349990844727 L 0.4999998211860657 13.83349990844727 L 0.4999998211860657 16.16650009155273 L 22.83399963378906 16.16650009155273 M 22.83399963378906 9.500499725341797 L 22.83399963378906 7.165999889373779 L 0.4999998211860657 7.165999889373779 L 0.4999998211860657 9.500499725341797 L 22.83399963378906 9.500499725341797 M 22.83399963378906 2.83299994468689 L 22.83399963378906 0.5000000596046448 L 0.4999998211860657 0.5000000596046448 L 0.4999998211860657 2.83299994468689 L 22.83399963378906 2.83299994468689 M 23.33399963378906 16.66650009155273 L -1.831054703416157e-07 16.66650009155273 L -1.831054703416157e-07 13.33349990844727 L 23.33399963378906 13.33349990844727 L 23.33399963378906 16.66650009155273 Z M 23.33399963378906 10.0004997253418 L -1.831054703416157e-07 10.0004997253418 L -1.831054703416157e-07 6.665999889373779 L 23.33399963378906 6.665999889373779 L 23.33399963378906 10.0004997253418 Z M 23.33399963378906 3.33299994468689 L -1.831054703416157e-07 3.33299994468689 L -1.831054703416157e-07 4.577636758540393e-08 L 23.33399963378906 4.577636758540393e-08 L 23.33399963378906 3.33299994468689 Z" stroke="none" fill="#fff"/></g></svg>