<svg xmlns="http://www.w3.org/2000/svg" width="84" height="54" viewBox="0 0 84 54"><g transform="translate(-22)"><rect width="84" height="54" transform="translate(22)" fill="#fff"/><text transform="translate(64 45)" fill="#001489" font-size="11" font-family="MuseoSans-500, Museo Sans" font-weight="500"><tspan x="-34.732" y="0">CONTACT US</tspan></text><g transform="translate(28.52 -9.588)"><path d="M39.658,56.43H30.705a3.228,3.228,0,0,0-3.225,3.222v5.472a.342.342,0,0,0,.342.342h14.7a.342.342,0,0,0,.342-.342V59.652a3.229,3.229,0,0,0-3.211-3.222ZM42.2,64.782H28.178v-5.13a2.542,2.542,0,0,1,2.541-2.538h8.94A2.54,2.54,0,0,1,42.2,59.652Z" transform="translate(0 -25.878)" fill="#001489"/><path d="M29.151,26.356v.092a1.087,1.087,0,0,0,1.122,1.026H31.5a.729.729,0,0,0,.645.393h1.368a.738.738,0,1,0,0-1.473H32.144a.726.726,0,0,0-.645.4H30.273a.4.4,0,0,1-.438-.342V26.4h.5a.342.342,0,0,0,.342-.342v-4.1l.072-.167.081-.184c.031-.061.065-.12.1-.182s.059-.116.092-.175.072-.116.11-.175.068-.11.106-.164.079-.11.12-.16.075-.106.116-.158l.134-.151c.041-.051.081-.1.127-.147l.134-.15.134-.13c.051-.048.1-.09.158-.134l.144-.123c.051-.041.11-.081.164-.12l.151-.11c.055-.041.116-.075.175-.112l.158-.1.184-.1c.055-.027.106-.059.16-.081l.2-.09c.055-.02.106-.048.164-.068s.136-.051.206-.075l.167-.055c.072-.024.144-.041.219-.061s.11-.031.164-.041.154-.031.232-.044.106-.024.16-.031l.267-.031h.136c.136,0,.274-.017.41-.017a3.24,3.24,0,0,1,.41.017h.136l.267.031a.784.784,0,0,1,.158.031c.051.011.158.024.236.044h0a1.23,1.23,0,0,1,.167.044c.073.016.146.035.216.057l.167.059c.068.024.14.044.206.072l.171.072.191.085.167.085.178.1.164.1.167.106.315.232.151.127.147.127.144.14c.044.048.092.09.136.136s.09.1.134.154l.127.144.12.164.116.154c.037.059.075.116.11.175s.072.106.106.164.065.123.1.182l.092.175c.031.061.059.13.085.2s.048.1.068.158V26a5.348,5.348,0,0,1-7.916,2.425.342.342,0,0,0-.379.568,6.024,6.024,0,0,0,8.87-2.585h.684a1.341,1.341,0,0,0,1.262-1.33V22.882a1.327,1.327,0,0,0-1.05-1.3,6.839,6.839,0,0,0-12.837,0,1.323,1.323,0,0,0-1.043,1.3V25.07a1.338,1.338,0,0,0,.991,1.286Zm2.992.739h1.368a.053.053,0,1,1,0,.106H32.144a.051.051,0,0,1-.051-.051A.054.054,0,0,1,32.144,27.1Zm10.27-4.213V25.07a.646.646,0,0,1-.629.647h-.52V22.235h.52a.649.649,0,0,1,.629.647ZM35.629,17.8a6.157,6.157,0,0,1,5.677,3.762h-.154l-.052-.119c-.031-.068-.061-.13-.1-.2s-.072-.14-.11-.212-.068-.123-.106-.184-.081-.134-.127-.2-.075-.116-.116-.175-.092-.127-.14-.188l-.126-.147-.154-.178c-.048-.051-.092-.1-.14-.151s-.11-.112-.167-.167l-.144-.14-.182-.154-.154-.127-.191-.14-.16-.116-.206-.127-.167-.1c-.072-.041-.144-.075-.215-.112l-.171-.09L38,18.436l-.175-.075-.239-.081-.178-.061-.25-.065-.18-.059-.267-.051c-.059,0-.112-.024-.175-.031s-.2-.024-.3-.035l-.147-.017c-.151,0-.3-.017-.458-.017a4.018,4.018,0,0,0-.458.017l-.147.017a1.726,1.726,0,0,0-.3.035l-.178.031c-.059.011-.178.031-.263.051l-.182.048-.25.065-.178.061-.239.081-.178.075-.226.1-.171.09-.215.112-.167.1-.206.127-.16.116-.191.14-.154.127-.182.154-.144.14c-.059.055-.116.11-.171.167l-.134.151c-.055.059-.106.116-.158.178l-.127.16c-.048.065-.1.127-.14.191l-.116.175c-.044.065-.085.134-.127.2s-.072.12-.106.182l-.112.212-.094.2-.051.106h-.155A6.158,6.158,0,0,1,35.629,17.8Zm-6.785,5.079a.647.647,0,0,1,.629-.647h.537V25.72h-.537a.645.645,0,0,1-.625-.647Z" transform="translate(-0.447)" fill="#001489"/></g></g></svg>