<svg xmlns="http://www.w3.org/2000/svg" width="95.639" height="30.666" viewBox="0 0 95.639 30.666"><path d="M43.052,26.781a2.179,2.179,0,0,1-.719.7,2.182,2.182,0,0,1-2.933-.7,3.061,3.061,0,0,1-.4-1.01,5.642,5.642,0,0,1-.125-1.184,6.2,6.2,0,0,1,.116-1.2,3.025,3.025,0,0,1,.391-1.019,2.225,2.225,0,0,1,.72-.716,2.069,2.069,0,0,1,1.106-.275,2.03,2.03,0,0,1,1.087.275,2.292,2.292,0,0,1,.73.726,3.168,3.168,0,0,1,.41,1.03,5.662,5.662,0,0,1,.125,1.184,6.093,6.093,0,0,1-.116,1.185,2.92,2.92,0,0,1-.39,1.009m2.268-5.958a4.311,4.311,0,0,0-1.44-1.214,4.4,4.4,0,0,0-2.071-.458,3.992,3.992,0,0,0-1.738.379,3.074,3.074,0,0,0-1.236,1.1v-.85a.358.358,0,0,0-.356-.359H36.444a.358.358,0,0,0-.356.359V32.793a.447.447,0,0,0,.444.448h1.995a.446.446,0,0,0,.444-.448V28.51a3.327,3.327,0,0,0,1.246,1.047,3.963,3.963,0,0,0,1.748.389,4.056,4.056,0,0,0,3.365-1.613,5.1,5.1,0,0,0,.837-1.688,7.125,7.125,0,0,0,.275-1.979,7.866,7.866,0,0,0-.275-2.086,5.157,5.157,0,0,0-.847-1.757" transform="translate(-9.076 -5.558)" fill="#4b4f54" fill-rule="evenodd"/><path d="M59.612,19.116a2.771,2.771,0,0,0-1.143-.863,4.741,4.741,0,0,0-1.842-.309A3.678,3.678,0,0,0,55,18.352a3.249,3.249,0,0,0-1.313,1.22V14.7a.347.347,0,0,0-.345-.348H51.151a.347.347,0,0,0-.345.348V28.045a.438.438,0,0,0,.436.44h2.012a.438.438,0,0,0,.436-.44V23.106a3.751,3.751,0,0,1,.494-2.19,1.858,1.858,0,0,1,1.586-.652,1.453,1.453,0,0,1,1.33.589,3.542,3.542,0,0,1,.379,1.841v5.317a.472.472,0,0,0,.469.473h1.946a.472.472,0,0,0,.469-.473V22.184a8.336,8.336,0,0,0-.167-1.729,3.358,3.358,0,0,0-.585-1.339" transform="translate(-12.777 -4.352)" fill="#4b4f54" fill-rule="evenodd"/><path d="M71.138,24.792v.914a5.386,5.386,0,0,1-.048.62,2.066,2.066,0,0,1-.255.752,1.771,1.771,0,0,1-.64.635,2.381,2.381,0,0,1-1.233.266,3.383,3.383,0,0,1-.631-.058,1.5,1.5,0,0,1-.524-.2.994.994,0,0,1-.349-.38,1.262,1.262,0,0,1-.129-.6,1.314,1.314,0,0,1,.129-.619,1.206,1.206,0,0,1,.343-.4,1.758,1.758,0,0,1,.508-.256,4.9,4.9,0,0,1,.6-.155c.214-.038.436-.071.658-.1s.436-.06.637-.1a4.528,4.528,0,0,0,.572-.149,1.392,1.392,0,0,0,.358-.178M74.1,28.68a10.663,10.663,0,0,1-.077-1.307V22.1a2.523,2.523,0,0,0-.421-1.518,2.871,2.871,0,0,0-1.073-.892,4.764,4.764,0,0,0-1.439-.428,9.578,9.578,0,0,0-3.22.059,4.808,4.808,0,0,0-1.507.567,3.394,3.394,0,0,0-1.109,1.059A3.082,3.082,0,0,0,64.8,22.2a.407.407,0,0,0,.4.466h2.085a.4.4,0,0,0,.395-.327,1.367,1.367,0,0,1,.482-.862,2.033,2.033,0,0,1,1.247-.341,4.562,4.562,0,0,1,.682.048,1.473,1.473,0,0,1,.542.188,1.021,1.021,0,0,1,.367.389,1.444,1.444,0,0,1,.138.689.692.692,0,0,1-.231.607,1.808,1.808,0,0,1-.715.332,7.3,7.3,0,0,1-1.061.175c-.4.039-.816.092-1.229.157a11.836,11.836,0,0,0-1.242.266,3.562,3.562,0,0,0-1.108.509,2.605,2.605,0,0,0-.8.914,3.049,3.049,0,0,0-.309,1.452,3.283,3.283,0,0,0,.268,1.379,2.633,2.633,0,0,0,.747.964,3.139,3.139,0,0,0,1.111.56,4.988,4.988,0,0,0,1.359.179,6.294,6.294,0,0,0,1.846-.277,3.654,3.654,0,0,0,1.49-.885c.013.126.033.253.057.377.013.066.028.132.044.2a.434.434,0,0,0,.418.333h1.985a.429.429,0,0,0,.414-.538,3.6,3.6,0,0,1-.087-.473" transform="translate(-16.207 -5.559)" fill="#4b4f54" fill-rule="evenodd"/><path d="M87.764,25.684H85.738a.374.374,0,0,0-.367.292,2.488,2.488,0,0,1-.612,1.227,1.966,1.966,0,0,1-1.484.54,1.89,1.89,0,0,1-1.056-.284,2.133,2.133,0,0,1-.691-.735,3.417,3.417,0,0,1-.373-1.012,5.517,5.517,0,0,1-.116-1.106,5.761,5.761,0,0,1,.116-1.136,3.36,3.36,0,0,1,.391-1.04,2.367,2.367,0,0,1,.711-.765,1.879,1.879,0,0,1,1.075-.294,1.754,1.754,0,0,1,1.925,1.409.444.444,0,0,0,.43.337h1.963a.449.449,0,0,0,.442-.516,3.671,3.671,0,0,0-.428-1.273,3.906,3.906,0,0,0-1.077-1.216,4.664,4.664,0,0,0-1.5-.725,6.344,6.344,0,0,0-1.738-.238,5.534,5.534,0,0,0-2.2.417,4.66,4.66,0,0,0-1.636,1.163A5,5,0,0,0,78.5,22.5a6.908,6.908,0,0,0-.344,2.207,5.8,5.8,0,0,0,.374,2.111,4.945,4.945,0,0,0,1.044,1.658A4.652,4.652,0,0,0,81.2,29.558a5.539,5.539,0,0,0,2.095.387,5.076,5.076,0,0,0,3.326-1.073,4.52,4.52,0,0,0,1.514-2.728.39.39,0,0,0-.08-.322.374.374,0,0,0-.291-.138" transform="translate(-19.655 -5.558)" fill="#4b4f54" fill-rule="evenodd"/><path d="M115.636,14.352H112.05a.472.472,0,0,0-.45.331l-2.945,9.229-3.115-9.237a.474.474,0,0,0-.448-.323H101.5a.476.476,0,0,0-.473.477V27.9a.579.579,0,0,0,.576.581h1.829a.579.579,0,0,0,.576-.581V18.84l3.205,9.254a.577.577,0,0,0,.544.389h1.621a.576.576,0,0,0,.544-.391l3.206-9.348V27.9a.579.579,0,0,0,.576.581h1.829a.579.579,0,0,0,.576-.581V14.829a.476.476,0,0,0-.473-.477" transform="translate(-25.407 -4.352)" fill="#4b4f54" fill-rule="evenodd"/><path d="M125.377,14.352h-2.064a.558.558,0,0,0-.556.56V27.9a.579.579,0,0,0,.576.581h2.023a.579.579,0,0,0,.576-.581V14.912a.558.558,0,0,0-.556-.56" transform="translate(-30.872 -4.352)" fill="#4b4f54" fill-rule="evenodd"/><path d="M97.421,18.422h-1.66V15.16L93.114,16.7a.478.478,0,0,0-.237.413v1.307H91.645a.444.444,0,0,0-.442.445v1.1a.444.444,0,0,0,.442.446h1.231V26.33a2.682,2.682,0,0,0,.26,1.265,1.878,1.878,0,0,0,.714.75,2.924,2.924,0,0,0,1.033.351,8.069,8.069,0,0,0,1.225.089c.269,0,.551-.007.84-.02.155-.007.3-.018.44-.033a.446.446,0,0,0,.4-.448V26.87a.4.4,0,0,0-.442-.408l-.032,0c-.139.013-.288.019-.442.019a1.3,1.3,0,0,1-.891-.218,1.331,1.331,0,0,1-.216-.9V20.408h1.66a.365.365,0,0,0,.363-.366V18.787a.365.365,0,0,0-.363-.366" transform="translate(-22.936 -4.555)" fill="#4b4f54" fill-rule="evenodd"/><g transform="translate(0 3.267)"><path d="M23.126,6.247,12.868.274a1.727,1.727,0,0,0-1.74,0L.87,6.247A1.758,1.758,0,0,0,0,7.766V19.711a1.758,1.758,0,0,0,.87,1.52L6,24.217V10.588a.837.837,0,0,1,.414-.724L9,8.359l2.549-1.484a.9.9,0,0,1,.9,0l2.545,1.482h0l2.55,1.485a.915.915,0,0,1,.453.792V13.6h0v2.992a.867.867,0,0,1-.429.75L15,18.837h0l-2.189,1.275A.54.54,0,0,1,12,19.64V17.626a.929.929,0,0,1,.46-.8l2.149-1.251A.79.79,0,0,0,15,14.889V12.31a.8.8,0,0,0-.393-.687L12,10.105h0L9.567,8.691A.379.379,0,0,0,9,9.022V25.964l2.129,1.24a1.727,1.727,0,0,0,1.74,0l10.258-5.973a1.757,1.757,0,0,0,.87-1.52V7.766a1.757,1.757,0,0,0-.87-1.52" transform="translate(0 -0.039)" fill="#4b4f54" fill-rule="evenodd"/></g><path d="M37.8,6.986V1.092h1.91a6.925,6.925,0,0,1,1.415.088,1.545,1.545,0,0,1,.848.577,1.83,1.83,0,0,1,.342,1.148,1.923,1.923,0,0,1-.2.913,1.616,1.616,0,0,1-.5.581A1.725,1.725,0,0,1,41,4.678a6.793,6.793,0,0,1-1.234.084H38.99V6.986Zm1.19-4.9V3.762h.651a3.077,3.077,0,0,0,.941-.092.781.781,0,0,0,.372-.289.792.792,0,0,0,.135-.458.761.761,0,0,0-.189-.531.823.823,0,0,0-.478-.261,5.72,5.72,0,0,0-.856-.04Zm5.375,4.9h-1.13V2.716h1.049v.607a1.825,1.825,0,0,1,.484-.567.891.891,0,0,1,.488-.137A1.434,1.434,0,0,1,46,2.833l-.35.985a.991.991,0,0,0-.531-.185.627.627,0,0,0-.4.131.893.893,0,0,0-.259.472,6.711,6.711,0,0,0-.094,1.431Zm1.861-2.2A2.31,2.31,0,0,1,46.5,3.7a1.9,1.9,0,0,1,.786-.8,2.333,2.333,0,0,1,1.136-.277,2.132,2.132,0,0,1,1.588.629,2.174,2.174,0,0,1,.619,1.59,2.2,2.2,0,0,1-.625,1.606,2.113,2.113,0,0,1-1.574.637,2.479,2.479,0,0,1-1.12-.265,1.82,1.82,0,0,1-.81-.778A2.592,2.592,0,0,1,46.227,4.791Zm1.158.06a1.415,1.415,0,0,0,.3.973.986.986,0,0,0,1.486,0,1.434,1.434,0,0,0,.3-.981,1.408,1.408,0,0,0-.3-.965.986.986,0,0,0-1.486,0A1.415,1.415,0,0,0,47.385,4.851Zm6.943,2.135V6.347a1.646,1.646,0,0,1-.613.539,1.719,1.719,0,0,1-.8.2,1.568,1.568,0,0,1-.772-.189,1.116,1.116,0,0,1-.495-.531,2.368,2.368,0,0,1-.153-.945v-2.7h1.13V4.678a5.441,5.441,0,0,0,.062,1.1.6.6,0,0,0,.227.322.7.7,0,0,0,.418.119.889.889,0,0,0,.519-.159.808.808,0,0,0,.314-.394,4.573,4.573,0,0,0,.084-1.152v-1.8h1.13v4.27Zm6.135,0H59.414V6.359A1.7,1.7,0,0,1,58.8,6.9a1.583,1.583,0,0,1-.718.179,1.626,1.626,0,0,1-1.26-.593,2.412,2.412,0,0,1-.525-1.654,2.384,2.384,0,0,1,.511-1.65A1.665,1.665,0,0,1,58.1,2.62a1.6,1.6,0,0,1,1.238.6V1.092h1.13ZM57.448,4.759a1.955,1.955,0,0,0,.189.989.854.854,0,0,0,.764.442.831.831,0,0,0,.663-.332,1.531,1.531,0,0,0,.273-.991,1.675,1.675,0,0,0-.265-1.059.84.84,0,0,0-.679-.324.849.849,0,0,0-.673.32A1.444,1.444,0,0,0,57.448,4.759Zm6.408,2.227V1.092h1.781l1.069,4.02,1.057-4.02h1.785V6.986H68.443V2.347l-1.17,4.639H66.128L64.962,2.347V6.986ZM73.2,5.627l1.126.189a1.846,1.846,0,0,1-.685.943,2.014,2.014,0,0,1-1.172.324,1.91,1.91,0,0,1-1.648-.728,2.445,2.445,0,0,1-.422-1.471,2.358,2.358,0,0,1,.555-1.662,1.827,1.827,0,0,1,1.4-.6,1.9,1.9,0,0,1,1.5.629,2.784,2.784,0,0,1,.527,1.928h-2.83a1.143,1.143,0,0,0,.273.782.855.855,0,0,0,.651.279.692.692,0,0,0,.446-.145A.894.894,0,0,0,73.2,5.627Zm.064-1.142a1.088,1.088,0,0,0-.253-.746.815.815,0,0,0-1.2.014,1.042,1.042,0,0,0-.237.732Zm1.958-1.769h1.041V3.3A1.676,1.676,0,0,1,77.59,2.62a1.433,1.433,0,0,1,.712.169A1.3,1.3,0,0,1,78.8,3.3a1.972,1.972,0,0,1,.607-.511,1.489,1.489,0,0,1,.7-.169,1.549,1.549,0,0,1,.8.191,1.17,1.17,0,0,1,.486.561,2.433,2.433,0,0,1,.117.884v2.73h-1.13V4.546a1.816,1.816,0,0,0-.117-.82.535.535,0,0,0-.482-.241.77.77,0,0,0-.446.145.8.8,0,0,0-.3.424,3.052,3.052,0,0,0-.092.882v2.05H77.8V4.646a3.246,3.246,0,0,0-.06-.8.513.513,0,0,0-.187-.269.591.591,0,0,0-.344-.088.823.823,0,0,0-.47.141.772.772,0,0,0-.3.406,3.018,3.018,0,0,0-.09.88V6.986h-1.13Zm7.357,4.27V1.092H83.7V3.215a1.6,1.6,0,0,1,1.238-.6,1.665,1.665,0,0,1,1.291.565,2.339,2.339,0,0,1,.511,1.622,2.468,2.468,0,0,1-.521,1.685,1.625,1.625,0,0,1-1.264.591,1.563,1.563,0,0,1-.722-.183,1.726,1.726,0,0,1-.613-.541v.627ZM83.7,4.759a1.816,1.816,0,0,0,.209.981.894.894,0,0,0,.78.45.8.8,0,0,0,.637-.32,1.573,1.573,0,0,0,.263-1.007,1.668,1.668,0,0,0-.265-1.055.84.84,0,0,0-.679-.324.851.851,0,0,0-.675.316A1.449,1.449,0,0,0,83.7,4.759Zm6.429.868,1.126.189a1.847,1.847,0,0,1-.685.943,2.014,2.014,0,0,1-1.172.324,1.91,1.91,0,0,1-1.648-.728,2.445,2.445,0,0,1-.422-1.471,2.358,2.358,0,0,1,.555-1.662,1.827,1.827,0,0,1,1.4-.6,1.9,1.9,0,0,1,1.5.629,2.784,2.784,0,0,1,.527,1.928h-2.83a1.143,1.143,0,0,0,.273.782.855.855,0,0,0,.651.279.692.692,0,0,0,.446-.145A.894.894,0,0,0,90.125,5.627Zm.064-1.142a1.088,1.088,0,0,0-.253-.746.815.815,0,0,0-1.2.014,1.042,1.042,0,0,0-.237.732Zm3.124,2.5h-1.13V2.716h1.049v.607a1.825,1.825,0,0,1,.484-.567.891.891,0,0,1,.488-.137,1.434,1.434,0,0,1,.744.213l-.35.985a.991.991,0,0,0-.531-.185.627.627,0,0,0-.4.131.893.893,0,0,0-.259.472,6.711,6.711,0,0,0-.094,1.431Zm4.149-2.2A2.31,2.31,0,0,1,97.74,3.7a1.9,1.9,0,0,1,.786-.8,2.333,2.333,0,0,1,1.136-.277,2.132,2.132,0,0,1,1.588.629,2.174,2.174,0,0,1,.619,1.59,2.2,2.2,0,0,1-.625,1.606,2.113,2.113,0,0,1-1.574.637,2.479,2.479,0,0,1-1.12-.265,1.82,1.82,0,0,1-.81-.778A2.592,2.592,0,0,1,97.462,4.791Zm1.158.06a1.415,1.415,0,0,0,.3.973.986.986,0,0,0,1.486,0,1.434,1.434,0,0,0,.3-.981,1.408,1.408,0,0,0-.3-.965.986.986,0,0,0-1.486,0A1.415,1.415,0,0,0,98.62,4.851Zm3.638-2.135h.627V2.395a2.136,2.136,0,0,1,.115-.8.906.906,0,0,1,.422-.432A1.62,1.62,0,0,1,104.2.992a3.145,3.145,0,0,1,.945.145l-.153.788a2.231,2.231,0,0,0-.519-.064.462.462,0,0,0-.352.115.664.664,0,0,0-.107.44v.3h.844V3.6h-.844V6.986h-1.13V3.6h-.627Z" transform="translate(-9.506 -0.992)" fill="#4b4f54"/></svg>