<svg xmlns="http://www.w3.org/2000/svg" width="45" height="45" viewBox="0 0 45 45"><circle cx="22.5" cy="22.5" r="22.5" fill="#e6f5fb"/><g transform="translate(14.533 9.031)"><path d="M38.2,38.152v4.314a7.47,7.47,0,0,1-14.939,0V38.152h-.9v4.314a8.376,8.376,0,0,0,7.921,8.351v3.022h-4.24v.9h9.37v-.9H31.181V50.816A8.375,8.375,0,0,0,39.1,42.466V38.152Z" transform="translate(-22.363 -28.742)" fill="#001489"/><path d="M38.344,25.888a5.072,5.072,0,0,0,5.066-5.066v-8.69a5.066,5.066,0,0,0-10.131,0v8.69A5.07,5.07,0,0,0,38.344,25.888Zm-4.17-5.582h1.521v-.9H34.173V16.926h1.521v-.9H34.173V13.54h1.521v-.9H34.173v-.511a4.169,4.169,0,0,1,8.338,0v8.69a4.169,4.169,0,1,1-8.338,0Z" transform="translate(-29.974 -7.067)" fill="#001489"/></g></svg>