<svg xmlns="http://www.w3.org/2000/svg" xmlns:xlink="http://www.w3.org/1999/xlink" width="72" height="53.5" viewBox="0 0 72 53.5"><defs><clipPath id="a"><rect width="24" height="21" transform="translate(0.5 0.411)" fill="none" stroke="#001489" stroke-width="0.6"/></clipPath></defs><g transform="translate(-3 -0.5)"><rect width="72" height="53.5" transform="translate(3 0.5)" fill="#fff"/><text transform="translate(39 45)" fill="#001489" font-size="11" font-family="MuseoSans-500, Museo Sans" font-weight="500"><tspan x="-29.337" y="0">REPORT AE</tspan></text><g transform="translate(27 9.089)" clip-path="url(#a)"><path d="M24.715,67.6a1.9,1.9,0,0,1-.469-.087,1.743,1.743,0,0,0-.351-.072H1.113a.359.359,0,0,1-.3.159.385.385,0,0,1-.379-.38.361.361,0,0,1,.159-.3V58.838H25.2v8.3A.445.445,0,0,1,24.715,67.6ZM1.2,66.838H23.9a2.046,2.046,0,0,1,.507.093c.064.017.133.036.193.049V59.438H1.2Z" transform="translate(-0.395 -46.727)" fill="#001489"/><path d="M1.062,51.317l-.333-.5L3.8,48.767H5.9v.6H3.986Z" transform="translate(-0.395 -38.656)" fill="#001489"/><path d="M95.911,51.335l-3.937-1.968H90.045v-.6h2.071L96.179,50.8Z" transform="translate(-71.545 -38.656)" fill="#001489"/><path d="M16,.3H0V-.3H16Z" transform="translate(4.5 11.411)" fill="#001489"/><path d="M40.183,17.589h-.6V9.66L38.7,7.889H27.183v9.7h-.6V7.289H39.068l1.115,2.229Z" transform="translate(-21.383 -6.178)" fill="#001489"/><path d="M10,.3H0V-.3H10Z" transform="translate(7.5 8.411)" fill="#001489"/><path d="M-.3-.3H10.3V2.3H-.3ZM9.7.3H.3V1.7H9.7Z" transform="translate(7.5 3.411)" fill="#001489"/><path d="M-.3-.3H21.3V5.3H-.3Zm21,.6H.3V4.7H20.7Z" transform="translate(1.5 14.411)" fill="#001489"/><path d="M18,.3H0V-.3H18Z" transform="translate(3.5 16.411)" fill="#001489"/></g></g></svg>