<svg xmlns="http://www.w3.org/2000/svg" xmlns:xlink="http://www.w3.org/1999/xlink" width="226" height="125" viewBox="0 0 226 125"><defs><filter id="a" x="0" y="17" width="226" height="108" filterUnits="userSpaceOnUse"><feOffset dx="3" dy="3" input="SourceAlpha"/><feGaussianBlur stdDeviation="3" result="b"/><feFlood flood-opacity="0.161"/><feComposite operator="in" in2="b"/><feComposite in="SourceGraphic"/></filter></defs><g transform="translate(6)"><g transform="matrix(1, 0, 0, 1, -6, 0)" filter="url(#a)"><path d="M0,0H208V90H0Z" transform="translate(6 23)" fill="#71c5e8"/></g><text transform="translate(24 57)" fill="#001489" font-size="18" font-family="MuseoSans-500, Museo Sans" font-weight="500"><tspan x="0" y="17">Podcasts</tspan></text><g transform="translate(165 54)"><rect width="28" height="28" rx="14" fill="none"/><path d="M9.127,11.331a.858.858,0,0,0,0,1.244h0a.937.937,0,0,0,1.291,0L16,7.194a1.072,1.072,0,0,0,0-1.555L10.417.258a.937.937,0,0,0-1.291,0h0a.858.858,0,0,0,0,1.244l4.185,4.035H.913A.9.9,0,0,0,0,6.417H0a.9.9,0,0,0,.913.88h12.4Z" transform="translate(5.833 8.167)" fill="#001489"/></g><g transform="translate(24)"><circle cx="20.5" cy="20.5" r="20.5" fill="#e6f5fb"/><g transform="translate(11.714 5.857)"><path d="M39.68,38.152v4.717a8.168,8.168,0,0,1-16.337,0V38.152h-.98v4.717A9.159,9.159,0,0,0,31.025,52v3.305H26.388v.98H36.635v-.98H32.006V52a9.158,9.158,0,0,0,8.656-9.132V38.152Z" transform="translate(-22.363 -27.862)" fill="#001489"/><path d="M38.817,27.649a5.546,5.546,0,0,0,5.539-5.539v-9.5a5.539,5.539,0,0,0-11.079,0v9.5A5.544,5.544,0,0,0,38.817,27.649Zm-4.561-6.1H35.92v-.98H34.257V17.849H35.92v-.98H34.257V14.145H35.92v-.98H34.257v-.559a4.559,4.559,0,0,1,9.119,0v9.5a4.559,4.559,0,1,1-9.119,0Z" transform="translate(-29.665 -7.067)" fill="#001489"/></g></g></g></svg>