<svg xmlns="http://www.w3.org/2000/svg" width="35" height="35" viewBox="0 0 35 35"><g transform="translate(-1058 -401)"><circle cx="17.5" cy="17.5" r="17.5" transform="translate(1058 401)" fill="#e6f5fb"/><g transform="translate(1051.11 389.641)"><path d="M33.966,24.27v.816h.3V38.765a.086.086,0,0,1-.083.086H26.629a1.371,1.371,0,0,0-1.3.939l-.042.128h0a.575.575,0,0,1-.544.391H23.226a.575.575,0,0,1-.544-.391l-.042-.128h0a1.371,1.371,0,0,0-1.3-.939H13.775a.087.087,0,0,1-.084-.086V25.086h.3V24.27h-1.1v14.5a.9.9,0,0,0,.9.9h7.563a.575.575,0,0,1,.541.37l.042.128a1.369,1.369,0,0,0,1.3.939h1.512a1.371,1.371,0,0,0,1.3-.939l.023-.128a.567.567,0,0,1,.541-.391h7.563a.9.9,0,0,0,.9-.9V24.27Z" transform="translate(0 -3.443)" fill="#001489"/><path d="M20.256,34.267h6a1.527,1.527,0,0,1,1.091.451l1.172,1.172,1.172-1.172a1.527,1.527,0,0,1,1.091-.451h6a.9.9,0,0,0,.9-.9V20.256a.9.9,0,0,0-.9-.9h-6A5.862,5.862,0,0,0,28.518,20.7a5.862,5.862,0,0,0-2.263-1.339h-6a.9.9,0,0,0-.9.9V33.379a.9.9,0,0,0,.9.887Zm-.086-14.011a.086.086,0,0,1,.086-.086h5.979a7.878,7.878,0,0,1,1.872,1.247v8.47h.8V21.415a8.153,8.153,0,0,1,1.862-1.247h6.011a.086.086,0,0,1,.086.086V33.379a.086.086,0,0,1-.086.086h-6a2.324,2.324,0,0,0-1.665.684l-.6.6-.6-.6a2.323,2.323,0,0,0-1.656-.684H20.256a.086.086,0,0,1-.086-.086Z" transform="translate(-4.536 0)" fill="#001489"/></g></g></svg>