<svg id="icn_pipeline" xmlns="http://www.w3.org/2000/svg" width="41" height="41" viewBox="0 0 41 41">
  <circle id="Ellipse_18" data-name="Ellipse 18" cx="20.5" cy="20.5" r="20.5" fill="#e6f5fb" opacity="0.998"/>
  <g id="np_chemistry_1273885_000000" transform="translate(16.4 8.2)">
    <path id="Path_27" data-name="Path 27" d="M49,81.052a.337.337,0,0,0,.337.337A2.592,2.592,0,0,0,51.928,78.8a.337.337,0,1,0-.673,0,1.918,1.918,0,0,1-1.918,1.918A.337.337,0,0,0,49,81.052Z" transform="translate(-45.245 -57.597)" fill="#001489"/>
    <path id="Path_28" data-name="Path 28" d="M51.416,12.512a1.347,1.347,0,1,0-.952-.394,1.348,1.348,0,0,0,.952.394Zm0-2.02a.67.67,0,1,0,0,.007Z" transform="translate(-45.978 -9.819)" fill="#001489"/>
    <path id="Path_29" data-name="Path 29" d="M43.707,36.654a1.047,1.047,0,1,0-1.047-1.047,1.048,1.048,0,0,0,1.047,1.047Zm0-1.424a.373.373,0,1,1-.373.373.374.374,0,0,1,.373-.373Z" transform="translate(-40.749 -26.981)" fill="#001489"/>
    <path id="Path_30" data-name="Path 30" d="M45.827,53.641a1.047,1.047,0,1,0,1.047,1.047,1.049,1.049,0,0,0-1.047-1.047Zm0,1.424a.374.374,0,1,1,.373-.377.378.378,0,0,1-.373.377Z" transform="translate(-42.232 -40.216)" fill="#001489"/>
    <path id="Path_31" data-name="Path 31" d="M47.4,77.864a.5.5,0,0,1-1.01,0,.5.5,0,0,1,1.01,0" transform="translate(-43.311 -56.866)" fill="#001489"/>
    <path id="Path_32" data-name="Path 32" d="M53.58,64.364a.5.5,0,0,1-1.01,0,.5.5,0,0,1,1.01,0" transform="translate(-47.603 -47.235)" fill="#001489"/>
    <path id="Path_33" data-name="Path 33" d="M44.45,21.539H36.61a.306.306,0,0,0-.309.3v1.131a.3.3,0,0,0,.09.215.311.311,0,0,0,.218.089h.6v1.274h0a.309.309,0,0,0,.617,0V23.278h5.371V29.26H38.6a.3.3,0,1,0,0,.608h4.589v9.276a2.686,2.686,0,0,1-5.371,0V25.966a.309.309,0,0,0-.617,0V39.144a3.3,3.3,0,0,0,6.606,0V23.279h.639a.311.311,0,0,0,.218-.089.3.3,0,0,0,.09-.215V21.843a.3.3,0,0,0-.09-.215.311.311,0,0,0-.218-.089Zm-.309,1.13H36.918v-.524h7.223Z" transform="translate(-36.301 -17.594)" fill="#001489"/>
  </g>
</svg>
