<svg xmlns="http://www.w3.org/2000/svg" xmlns:xlink="http://www.w3.org/1999/xlink" width="34" height="34" viewBox="0 0 34 34"><defs><clipPath id="a"><rect width="11.294" height="20.702" fill="#001489"/></clipPath></defs><circle cx="17" cy="17" r="17" fill="#e6f5fb" opacity="0.998"/><g transform="translate(11.353 6.646)" clip-path="url(#a)"><path d="M10.982,0H4.032a.314.314,0,0,0-.221.091L1.495,2.409A.315.315,0,0,0,1.4,2.63v6.69l-.014.019a.215.215,0,0,1-.021.024l-.007.008C1.3,9.482-.131,12.187.01,13.465a10.189,10.189,0,0,0,1.8,4.181l.08.116h-.17a.312.312,0,0,0-.312.312V20.39a.312.312,0,0,0,.312.312h6.95a.312.312,0,0,0,.312-.312V18.074a.312.312,0,0,0-.312-.312H8.378l-.012-.06a2.607,2.607,0,0,1,.067-1.351,1.655,1.655,0,0,1,.441-.607l.007-.008a3.052,3.052,0,0,0,.989-2.3l0-.07h1.107a.312.312,0,0,0,.312-.312V.313A.312.312,0,0,0,10.982,0M3.72,1.067V2.318H2.469ZM8.353,20.078H2.028V18.386H8.353Zm.893-6.633a2.431,2.431,0,0,1-.778,1.823h0l-.032.033a2.212,2.212,0,0,0-.593.845,3.2,3.2,0,0,0-.118,1.531l.013.085H2.658l-.022-.03a10.4,10.4,0,0,1-2-4.334,6.162,6.162,0,0,1,.63-2.35l.142-.336v2.342a.313.313,0,0,0,.312.312h.447l-.087.118-.189.258a.312.312,0,0,0,.3.493.308.308,0,0,0,.2-.124c.007-.009.243-.333.576-.782l.008-.011.011-.007a.3.3,0,0,0,.128-.173l0-.013.008-.011c.71-.957,1.628-2.177,1.969-2.551a.463.463,0,0,1,.592-.068c.3.2.314.677.048,1.255a7.022,7.022,0,0,1-1.628,2.425.311.311,0,0,0-.069.424l.011.021a3.46,3.46,0,0,1,.626,1.523.312.312,0,1,0,.624,0,3.537,3.537,0,0,0-.569-1.617l-.03-.049.04-.041a6.8,6.8,0,0,0,.815-1.051l.029-.045.051.013.021.006a.134.134,0,0,0,.034.007h3.56Zm1.424-.7H5.935l.058-.109c.115-.216.216-.42.309-.622.485-1.05.179-1.741-.269-2.037a1.088,1.088,0,0,0-1.4.168c-.351.386-1.275,1.611-1.988,2.571l-.022.03h-.6v-9.8h2a.312.312,0,0,0,.312-.312v-2H10.67Z" transform="translate(0 -0.001)" fill="#001489"/></g></svg>