<svg xmlns="http://www.w3.org/2000/svg" xmlns:xlink="http://www.w3.org/1999/xlink" width="89" height="89" viewBox="0 0 89 89"><defs><clipPath id="a"><rect width="57.937" height="49.438" transform="translate(0 0)" fill="none" stroke="#001489" stroke-width="1.3"/></clipPath></defs><g transform="translate(-636 -349)"><circle cx="44.5" cy="44.5" r="44.5" transform="translate(636 349)" fill="#e6f5fb"/><g transform="translate(652 369)" clip-path="url(#a)"><path d="M56.419,79.824H2.025A2.178,2.178,0,0,1-.15,77.649V58.441H58.594V77.649A2.178,2.178,0,0,1,56.419,79.824ZM1.15,59.741V77.649a.876.876,0,0,0,.875.875H56.419a.876.876,0,0,0,.875-.875V59.741Z" transform="translate(-0.254 -29.982)" fill="#001489"/><path d="M.824,54.476.177,53.349,9.09,48.235h4.485v1.3H9.436Z" transform="translate(-0.254 -24.803)" fill="#001489"/><path d="M103.285,54.482l-9.034-4.948H90.477v-1.3h4.107l9.326,5.108Z" transform="translate(-45.906 -24.803)" fill="#001489"/><path d="M36.442.65H0V-.65H36.442Z" transform="translate(10.817 26.52)" fill="#001489"/><path d="M58.986,30.391h-1.3V13.37L53.8,8.462H27.691V30.391h-1.3V7.162H54.432l4.554,5.756Z" transform="translate(-13.72 -3.964)" fill="#001489"/><path d="M23.228.65H0V-.65H23.228Z" transform="translate(17.076 17.618)" fill="#001489"/><path d="M23.228.65H0V-.65H23.228Z" transform="translate(17.076 23.043)" fill="#001489"/><path d="M-.65-.65H24.017V6.186H-.65ZM22.717.65H.65V4.886H22.717Z" transform="translate(17.077 8.16)" fill="#001489"/><path d="M-.65-.65H49.8V11.406H-.65ZM48.5.65H.65v9.456H48.5Z" transform="translate(4.489 35.144)" fill="#001489"/><path d="M57.111.65H0V-.65H57.111Z" transform="translate(0.256 31.898)" fill="#001489"/><path d="M0,.743l0-1.3L42.375-.65l0,1.3Z" transform="translate(7.873 40.429)" fill="#001489"/><path d="M14.841,23.083,9.284,17.525h4.257V0h1.3Zm-2.419-4.258,1.119,1.119V18.825Z" transform="translate(-5.507 0)" fill="#001489"/><path d="M98.485,23.083V0h1.3V17.525h4.257Zm1.3-4.258v1.119l1.119-1.119Z" transform="translate(-50.3 0)" fill="#001489"/></g></g></svg>