<svg xmlns="http://www.w3.org/2000/svg" width="35" height="35" viewBox="0 0 35 35"><g transform="translate(-1058 -211)"><circle cx="17.5" cy="17.5" r="17.5" transform="translate(1058 211)" fill="#e6f5fb"/><g transform="translate(1045.637 208.933)"><path d="M37.146,38.152v4.027a6.973,6.973,0,0,1-13.946,0V38.152h-.837v4.027a7.819,7.819,0,0,0,7.395,7.8V52.8H25.8v.837h8.747V52.8H30.595V49.974a7.818,7.818,0,0,0,7.389-7.8V38.152Z" transform="translate(0 -22.301)" fill="#001489"/><path d="M38.007,24.637a4.734,4.734,0,0,0,4.729-4.729V11.8a4.729,4.729,0,0,0-9.458,0v8.112A4.733,4.733,0,0,0,38.007,24.637Zm-3.893-5.211h1.42v-.837h-1.42V16.271h1.42v-.837h-1.42V13.109h1.42v-.837h-1.42V11.8a3.892,3.892,0,0,1,7.784,0v8.112a3.892,3.892,0,1,1-7.784,0Z" transform="translate(-7.83)" fill="#001489"/></g></g></svg>