<svg xmlns="http://www.w3.org/2000/svg" xmlns:xlink="http://www.w3.org/1999/xlink" width="928" height="791.202" viewBox="0 0 928 791.202"><defs><clipPath id="a"><rect width="928" height="791.202" fill="none"/></clipPath></defs><g transform="translate(-56 -455)"><text transform="translate(65.844 551.348)" fill="#004589" font-size="12" font-family="MuseoSans-700, Museo Sans" font-weight="700"><tspan x="0" y="0" letter-spacing="0.005em">B</tspan><tspan y="0" letter-spacing="0.004em">im</tspan><tspan y="0" letter-spacing="0.005em">ekizu</tspan><tspan y="0" letter-spacing="0.004em">m</tspan><tspan y="0" letter-spacing="0.005em">a</tspan><tspan y="0" letter-spacing="0.004em">b </tspan><tspan y="0" letter-spacing="0.005em">(UCB494</tspan><tspan y="0" letter-spacing="0.004em">0</tspan><tspan y="0">)</tspan></text><text transform="translate(66.051 567.684)" fill="#050605" font-size="11" font-family="MuseoSans-500Italic, Museo Sans" font-weight="500" font-style="italic"><tspan x="0" y="0" letter-spacing="0.005em">A</tspan><tspan y="0">n</tspan><tspan y="0" letter-spacing="0.005em">ti</tspan><tspan y="0" letter-spacing="-0.01em">-</tspan><tspan y="0" letter-spacing="0.005em">I</tspan><tspan y="0" letter-spacing="-0.073em">L</tspan><tspan y="0" letter-spacing="0.005em">-17A/</tspan><tspan y="0">F</tspan></text><text transform="translate(65.844 589.103)" fill="#050605" font-size="11" font-family="MuseoSans-500, Museo Sans" font-weight="500"><tspan x="0" y="0" xml:space="preserve" letter-spacing="0.005em">   P</tspan><tspan y="0" letter-spacing="0.004em">sor</tspan><tspan y="0" letter-spacing="0.005em">iasi</tspan><tspan y="0">s</tspan></text><text transform="translate(65.844 610.521)" fill="#050605" font-size="11" font-family="MuseoSans-500, Museo Sans" font-weight="500"><tspan x="0" y="0" xml:space="preserve" letter-spacing="0.005em">   </tspan><tspan y="0" letter-spacing="0.004em">H</tspan><tspan y="0" letter-spacing="0.005em">i</tspan><tspan y="0" letter-spacing="0.004em">dr</tspan><tspan y="0" letter-spacing="0.005em">ade</tspan><tspan y="0" letter-spacing="0.004em">n</tspan><tspan y="0" letter-spacing="0.005em">itis </tspan><tspan y="0" letter-spacing="0.004em">s</tspan><tspan y="0" letter-spacing="0.005em">uppu</tspan><tspan y="0" letter-spacing="0.004em">r</tspan><tspan y="0" letter-spacing="0.001em">a</tspan><tspan y="0" letter-spacing="0.005em">tiv</tspan><tspan y="0">a</tspan></text><text transform="translate(65.844 641.436)" fill="#004589" font-size="12" font-family="MuseoSans-700, Museo Sans" font-weight="700"><tspan x="0" y="0" letter-spacing="0.005em">Cer</tspan><tspan y="0" letter-spacing="0.004em">t</tspan><tspan y="0" letter-spacing="0.005em">olizu</tspan><tspan y="0" letter-spacing="0.004em">m</tspan><tspan y="0" letter-spacing="0.005em">a</tspan><tspan y="0" letter-spacing="0.004em">b </tspan><tspan y="0" letter-spacing="0.005em">peg</tspan><tspan y="0" letter-spacing="0.004em">o</tspan><tspan y="0" letter-spacing="0.005em">l </tspan><tspan y="0" letter-spacing="0.004em">(</tspan><tspan y="0" letter-spacing="0.005em">CD</tspan><tspan y="0" letter-spacing="0.004em">P</tspan><tspan y="0" letter-spacing="0.005em">870</tspan><tspan y="0">)</tspan></text><text transform="translate(66.051 657.771)" fill="#050605" font-size="11" font-family="MuseoSans-500Italic, Museo Sans" font-weight="500" font-style="italic"><tspan x="0" y="0" letter-spacing="0.005em">A</tspan><tspan y="0">n</tspan><tspan y="0" letter-spacing="0.005em">ti</tspan><tspan y="0" letter-spacing="-0.054em">-</tspan><tspan y="0" letter-spacing="0.005em">TN</tspan><tspan y="0">F</tspan></text><text transform="translate(65.844 679.189)" fill="#050605" font-size="11" font-family="MuseoSans-500, Museo Sans" font-weight="500"><tspan x="0" y="0" xml:space="preserve" letter-spacing="0.005em">   P</tspan><tspan y="0" letter-spacing="0.004em">e</tspan><tspan y="0" letter-spacing="0.005em">d</tspan><tspan y="0" letter-spacing="0.004em">i</tspan><tspan y="0" letter-spacing="0.001em">a</tspan><tspan y="0" letter-spacing="0.005em">tri</tspan><tspan y="0" letter-spacing="0.004em">c</tspan><tspan y="0" xml:space="preserve" letter-spacing="0.005em"> ps</tspan><tspan y="0" letter-spacing="0.004em">o</tspan><tspan y="0" letter-spacing="0.005em">ria</tspan><tspan y="0" letter-spacing="0.004em">s</tspan><tspan y="0" letter-spacing="0.005em">i</tspan><tspan y="0">s</tspan></text><text transform="translate(65.051 743.861)" fill="#622382" font-size="12" font-family="MuseoSans-700, Museo Sans" font-weight="700"><tspan x="0" y="0" letter-spacing="0.005em">B</tspan><tspan y="0" letter-spacing="0.004em">im</tspan><tspan y="0" letter-spacing="0.005em">ekizu</tspan><tspan y="0" letter-spacing="0.004em">m</tspan><tspan y="0" letter-spacing="0.005em">a</tspan><tspan y="0" letter-spacing="0.004em">b </tspan><tspan y="0" letter-spacing="0.005em">(UCB494</tspan><tspan y="0" letter-spacing="0.004em">0</tspan><tspan y="0">)</tspan></text><text transform="translate(65.257 760.197)" fill="#050605" font-size="11" font-family="MuseoSans-500Italic, Museo Sans" font-weight="500" font-style="italic"><tspan x="0" y="0" letter-spacing="0.005em">A</tspan><tspan y="0">n</tspan><tspan y="0" letter-spacing="0.005em">ti</tspan><tspan y="0" letter-spacing="-0.01em">-</tspan><tspan y="0" letter-spacing="0.005em">I</tspan><tspan y="0" letter-spacing="-0.073em">L</tspan><tspan y="0" letter-spacing="0.005em">-17A/</tspan><tspan y="0">F</tspan></text><text transform="translate(65.051 781.615)" fill="#050605" font-size="11" font-family="MuseoSans-500, Museo Sans" font-weight="500"><tspan x="0" y="0" xml:space="preserve" letter-spacing="0.005em">   P</tspan><tspan y="0" letter-spacing="0.004em">sor</tspan><tspan y="0" letter-spacing="0.005em">i</tspan><tspan y="0" letter-spacing="0.001em">a</tspan><tspan y="0" letter-spacing="0.005em">tic a</tspan><tspan y="0" letter-spacing="0.004em">r</tspan><tspan y="0" letter-spacing="0.005em">t</tspan><tspan y="0" letter-spacing="0.004em">h</tspan><tspan y="0" letter-spacing="0.005em">riti</tspan><tspan y="0">s</tspan></text><text transform="translate(65.051 852.752)" fill="#a10a40" font-size="12" font-family="MuseoSans-700, Museo Sans" font-weight="700"><tspan x="0" y="0" letter-spacing="0.005em">B</tspan><tspan y="0" letter-spacing="0.004em">im</tspan><tspan y="0" letter-spacing="0.005em">ekizu</tspan><tspan y="0" letter-spacing="0.004em">m</tspan><tspan y="0" letter-spacing="0.005em">a</tspan><tspan y="0" letter-spacing="0.004em">b </tspan><tspan y="0" letter-spacing="0.005em">(UCB494</tspan><tspan y="0" letter-spacing="0.004em">0</tspan><tspan y="0">)</tspan></text><text transform="translate(65.257 869.088)" fill="#050605" font-size="11" font-family="MuseoSans-500Italic, Museo Sans" font-weight="500" font-style="italic"><tspan x="0" y="0" letter-spacing="0.005em">A</tspan><tspan y="0">n</tspan><tspan y="0" letter-spacing="0.005em">ti</tspan><tspan y="0" letter-spacing="-0.01em">-</tspan><tspan y="0" letter-spacing="0.005em">I</tspan><tspan y="0" letter-spacing="-0.073em">L</tspan><tspan y="0" letter-spacing="0.005em">-17A/</tspan><tspan y="0">F</tspan></text><text transform="translate(65.051 890.507)" fill="#050605" font-size="11" font-family="MuseoSans-500, Museo Sans" font-weight="500"><tspan x="0" y="0" xml:space="preserve" letter-spacing="0.005em">   Ankylosi</tspan><tspan y="0" letter-spacing="0.004em">n</tspan><tspan y="0" letter-spacing="0.005em">g sp</tspan><tspan y="0" letter-spacing="0.004em">on</tspan><tspan y="0" letter-spacing="0.005em">d</tspan><tspan y="0" letter-spacing="0.004em">y</tspan><tspan y="0" letter-spacing="0.005em">liti</tspan><tspan y="0">s</tspan></text><text transform="translate(65.051 911.925)" fill="#050605" font-size="11" font-family="MuseoSans-500, Museo Sans" font-weight="500"><tspan x="0" y="0" xml:space="preserve" letter-spacing="0.005em">   N</tspan><tspan y="0" letter-spacing="0.004em">o</tspan><tspan y="0" letter-spacing="0.005em">n</tspan><tspan y="0" letter-spacing="0.004em">r</tspan><tspan y="0" letter-spacing="0.005em">adiogr</tspan><tspan y="0" letter-spacing="0.004em">a</tspan><tspan y="0" letter-spacing="0.005em">p</tspan><tspan y="0" letter-spacing="0.004em">h</tspan><tspan y="0" letter-spacing="0.005em">i</tspan><tspan y="0" letter-spacing="0.004em">c</tspan><tspan y="0" xml:space="preserve" letter-spacing="0.005em"> a</tspan><tspan y="0" letter-spacing="0.004em">x</tspan><tspan y="0" letter-spacing="0.005em">ial </tspan><tspan y="0" letter-spacing="0.004em">s</tspan><tspan y="0" letter-spacing="0.005em">p</tspan><tspan y="0" letter-spacing="0.004em">on</tspan><tspan y="0" letter-spacing="0.005em">d</tspan><tspan y="0" letter-spacing="0.004em">y</tspan><tspan y="0" letter-spacing="0.005em">l</tspan><tspan y="0" letter-spacing="0.004em">oar</tspan><tspan y="0" letter-spacing="0.005em">t</tspan><tspan y="0" letter-spacing="0.004em">h</tspan><tspan y="0" letter-spacing="0.005em">r</tspan><tspan y="0" letter-spacing="0.004em">i</tspan><tspan y="0" letter-spacing="0.005em">t</tspan><tspan y="0" letter-spacing="0.004em">i</tspan><tspan y="0">s</tspan></text><text transform="translate(323.902 912.449)" fill="#050605" font-size="1" font-family="MuseoSans-500Italic, Museo Sans" font-weight="500" font-style="italic"><tspan x="0" y="0"> </tspan></text><text transform="translate(277.051 907.112)" fill="#050605" font-size="4" font-family="MuseoSans-500, Museo Sans" font-weight="500"><tspan x="0" y="0">a</tspan></text><text transform="translate(65.051 942.84)" fill="#a10a40" font-size="12" font-family="MuseoSans-700, Museo Sans" font-weight="700"><tspan x="0" y="0" letter-spacing="0.005em">D</tspan><tspan y="0" letter-spacing="0.004em">a</tspan><tspan y="0" letter-spacing="0.005em">p</tspan><tspan y="0" letter-spacing="0.004em">i</tspan><tspan y="0" letter-spacing="0.005em">rolizu</tspan><tspan y="0" letter-spacing="0.004em">mab</tspan><tspan y="0" letter-spacing="0.005em"> </tspan><tspan y="0" letter-spacing="0.004em">p</tspan><tspan y="0" letter-spacing="0.005em">egol</tspan><tspan y="0" xml:space="preserve" letter-spacing="0.004em"> (</tspan><tspan y="0" letter-spacing="0.005em">CDP7657</tspan><tspan y="0">)</tspan></text><text transform="translate(248.05 938.213)" fill="#a10a40" font-size="5" font-family="MuseoSans-700, Museo Sans" font-weight="700"><tspan x="0" y="0">b</tspan></text><text transform="translate(65.257 959.176)" fill="#050605" font-size="11" font-family="MuseoSans-500Italic, Museo Sans" font-weight="500" font-style="italic"><tspan x="0" y="0" letter-spacing="0.005em">A</tspan><tspan y="0">n</tspan><tspan y="0" letter-spacing="0.005em">ti</tspan><tspan y="0" letter-spacing="-0.001em">-</tspan><tspan y="0" letter-spacing="0.005em">CD</tspan><tspan y="0">4</tspan></text><text transform="translate(122.73 958.176)" fill="#050605" font-size="10" font-family="MuseoSans-500Italic, Museo Sans" font-weight="500" font-style="italic"><tspan x="0" y="0">0</tspan></text><text transform="translate(131.248 959.696)" fill="#050605" font-size="1" font-family="MuseoSans-500Italic, Museo Sans" font-weight="500" font-style="italic"><tspan x="0" y="0"> </tspan></text><text transform="translate(65.051 980.596)" fill="#050605" font-size="11" font-family="MuseoSans-500, Museo Sans" font-weight="500"><tspan x="0" y="0" xml:space="preserve" letter-spacing="0.005em">   </tspan><tspan y="0" letter-spacing="0.001em">S</tspan><tspan y="0" letter-spacing="0.004em">ys</tspan><tspan y="0" letter-spacing="0.005em">temic </tspan><tspan y="0" letter-spacing="0.004em">l</tspan><tspan y="0" letter-spacing="0.005em">upus </tspan><tspan y="0" letter-spacing="0.004em">e</tspan><tspan y="0" letter-spacing="0.011em">r</tspan><tspan y="0" letter-spacing="0.005em">yt</tspan><tspan y="0" letter-spacing="0.004em">h</tspan><tspan y="0" letter-spacing="0.005em">em</tspan><tspan y="0" letter-spacing="0.001em">a</tspan><tspan y="0" letter-spacing="0.005em">t</tspan><tspan y="0" letter-spacing="0.004em">os</tspan><tspan y="0" letter-spacing="0.005em">u</tspan><tspan y="0">s</tspan></text><text transform="translate(65.051 1048.595)" fill="#46a835" font-size="12" font-family="MuseoSans-700, Museo Sans" font-weight="700"><tspan x="0" y="0">R</tspan><tspan y="0" letter-spacing="0.004em">o</tspan><tspan y="0" letter-spacing="0.005em">z</tspan><tspan y="0" letter-spacing="0.004em">a</tspan><tspan y="0" letter-spacing="0.005em">n</tspan><tspan y="0" letter-spacing="0.004em">o</tspan><tspan y="0" letter-spacing="0.005em">lix</tspan><tspan y="0" letter-spacing="0.004em">i</tspan><tspan y="0" letter-spacing="0.005em">z</tspan><tspan y="0" letter-spacing="0.004em">u</tspan><tspan y="0" letter-spacing="0.005em">m</tspan><tspan y="0" letter-spacing="0.004em">ab (</tspan><tspan y="0" letter-spacing="0.005em">UCB7665</tspan><tspan y="0">)</tspan></text><text transform="translate(65.257 1064.931)" fill="#050605" font-size="11" font-family="MuseoSans-500Italic, Museo Sans" font-weight="500" font-style="italic"><tspan x="0" y="0" letter-spacing="0.005em">A</tspan><tspan y="0">n</tspan><tspan y="0" letter-spacing="0.005em">ti</tspan><tspan y="0" letter-spacing="-0.01em">-</tspan><tspan y="0" letter-spacing="0.005em">FcR</tspan><tspan y="0">n</tspan></text><text transform="translate(65.051 1086.349)" fill="#050605" font-size="11" font-family="MuseoSans-500, Museo Sans" font-weight="500"><tspan x="0" y="0" xml:space="preserve" letter-spacing="0.005em">   Immune th</tspan><tspan y="0" letter-spacing="0.001em">r</tspan><tspan y="0" letter-spacing="0.004em">o</tspan><tspan y="0" letter-spacing="0.005em">mb</tspan><tspan y="0" letter-spacing="0.004em">o</tspan><tspan y="0" letter-spacing="0.005em">c</tspan><tspan y="0" letter-spacing="0.004em">y</tspan><tspan y="0" letter-spacing="0.005em">t</tspan><tspan y="0" letter-spacing="0.004em">o</tspan><tspan y="0" letter-spacing="0.005em">p</tspan><tspan y="0" letter-spacing="0.004em">en</tspan><tspan y="0" letter-spacing="0.005em">i</tspan><tspan y="0">a</tspan></text><text transform="translate(65.051 1107.768)" fill="#050605" font-size="11" font-family="MuseoSans-500, Museo Sans" font-weight="500"><tspan x="0" y="0" xml:space="preserve" letter-spacing="0.005em">   </tspan><tspan y="0" letter-spacing="0.004em">M</tspan><tspan y="0" letter-spacing="0.005em">ya</tspan><tspan y="0" letter-spacing="0.004em">s</tspan><tspan y="0" letter-spacing="0.005em">th</tspan><tspan y="0" letter-spacing="0.004em">e</tspan><tspan y="0" letter-spacing="0.005em">n</tspan><tspan y="0" letter-spacing="0.004em">i</tspan><tspan y="0" letter-spacing="0.005em">a </tspan><tspan y="0" letter-spacing="0.004em">G</tspan><tspan y="0" letter-spacing="0.005em">r</tspan><tspan y="0" letter-spacing="0.004em">a</tspan><tspan y="0" letter-spacing="0.005em">vi</tspan><tspan y="0">s</tspan></text><text transform="translate(65.051 1138.682)" fill="#46a835" font-size="12" font-family="MuseoSans-700, Museo Sans" font-weight="700"><tspan x="0" y="0" letter-spacing="0.004em">Z</tspan><tspan y="0" letter-spacing="0.005em">i</tspan><tspan y="0" letter-spacing="0.004em">lu</tspan><tspan y="0" letter-spacing="0.005em">coplan </tspan><tspan y="0" letter-spacing="0.004em">(</tspan><tspan y="0" letter-spacing="0.005em">R</tspan><tspan y="0" letter-spacing="0.004em">A10</tspan><tspan y="0" letter-spacing="-0.011em">1</tspan><tspan y="0" letter-spacing="0.005em">495</tspan><tspan y="0">)</tspan></text><text transform="translate(65.257 1155.018)" fill="#050605" font-size="11" font-family="MuseoSans-500Italic, Museo Sans" font-weight="500" font-style="italic"><tspan x="0" y="0" letter-spacing="0.005em">A</tspan><tspan y="0">n</tspan><tspan y="0" letter-spacing="0.005em">ti</tspan><tspan y="0" letter-spacing="-0.001em">-</tspan><tspan y="0" letter-spacing="0.005em">C</tspan><tspan y="0">5</tspan></text><text transform="translate(65.051 1176.437)" fill="#050605" font-size="11" font-family="MuseoSans-500, Museo Sans" font-weight="500"><tspan x="0" y="0" xml:space="preserve" letter-spacing="0.005em">   </tspan><tspan y="0" letter-spacing="0.004em">M</tspan><tspan y="0" letter-spacing="0.005em">ya</tspan><tspan y="0" letter-spacing="0.004em">s</tspan><tspan y="0" letter-spacing="0.005em">th</tspan><tspan y="0" letter-spacing="0.004em">e</tspan><tspan y="0" letter-spacing="0.005em">n</tspan><tspan y="0" letter-spacing="0.004em">i</tspan><tspan y="0" letter-spacing="0.005em">a </tspan><tspan y="0" letter-spacing="0.004em">G</tspan><tspan y="0" letter-spacing="0.005em">r</tspan><tspan y="0" letter-spacing="0.004em">a</tspan><tspan y="0" letter-spacing="0.005em">vi</tspan><tspan y="0">s</tspan></text><rect width="637.627" height="687.74" transform="translate(345.976 505.686)" fill="#f0f1f1"/><rect width="638.984" height="48.272" transform="translate(344.619 456.057)" fill="#c1c1c0"/><rect width="288.73" height="28.511" transform="translate(56.793 504.329)" fill="#004589"/><rect width="288.73" height="28.511" transform="translate(56 692.739)" fill="#622382"/><rect width="288.73" height="28.511" transform="translate(56 802.031)" fill="#a10a40"/><rect width="288.73" height="28.511" transform="translate(56 999.799)" fill="#46a835"/><text transform="translate(73.941 483.783)" fill="#050605" font-size="14" font-family="MuseoSans-700, Museo Sans" font-weight="700"><tspan x="0" y="0" letter-spacing="0.01em">Progra</tspan><tspan y="0">m</tspan></text><text transform="translate(395.303 483.783)" fill="#050605" font-size="14" font-family="MuseoSans-700, Museo Sans" font-weight="700"><tspan x="0" y="0" letter-spacing="0.009em">P</tspan><tspan y="0" letter-spacing="0.01em">ha</tspan><tspan y="0" letter-spacing="0.009em">s</tspan><tspan y="0" letter-spacing="0.01em">e </tspan><tspan y="0">I</tspan></text><text transform="translate(551.931 484.783)" fill="#050605" font-size="15" font-family="MuseoSans-700, Museo Sans" font-weight="700"><tspan x="0" y="0" letter-spacing="0.009em">P</tspan><tspan y="0" letter-spacing="0.01em">hase I</tspan><tspan y="0">I</tspan></text><text transform="translate(706.751 483.783)" fill="#050605" font-size="14" font-family="MuseoSans-700, Museo Sans" font-weight="700"><tspan x="0" y="0" letter-spacing="0.009em">P</tspan><tspan y="0" letter-spacing="0.01em">hase II</tspan><tspan y="0">I</tspan></text><text transform="translate(880.56 483.783)" fill="#050605" font-size="14" font-family="MuseoSans-700, Museo Sans" font-weight="700"><tspan x="0" y="0" letter-spacing="0.01em">F</tspan><tspan y="0" letter-spacing="0.009em">il</tspan><tspan y="0" letter-spacing="0.01em">e</tspan><tspan y="0">d</tspan></text><g transform="translate(56 455)"><g clip-path="url(#a)"><path d="M923.7,1H0V-1H923.7Z" transform="translate(0 544.799)" fill="#c1c1c0"/><path d="M920.4,1H0V-1H920.4Z" transform="translate(2.263 738.492)" fill="#c1c1c0"/></g></g><text transform="translate(65.845 521.143)" fill="#fff" font-size="14" font-family="MuseoSans-900, Museo Sans" font-weight="900"><tspan x="0" y="0" letter-spacing="0.01em">De</tspan><tspan y="0" letter-spacing="0.009em">r</tspan><tspan y="0" letter-spacing="0.01em">ma</tspan><tspan y="0" letter-spacing="0.009em">t</tspan><tspan y="0" letter-spacing="0.01em">o</tspan><tspan y="0" letter-spacing="0.009em">l</tspan><tspan y="0" letter-spacing="0.01em">o</tspan><tspan y="0" letter-spacing="0.009em">g</tspan><tspan y="0">y</tspan></text><text transform="translate(66.264 1018.239)" fill="#fff" font-size="14" font-family="MuseoSans-900, Museo Sans" font-weight="900"><tspan x="0" y="0" letter-spacing="0.01em">O</tspan><tspan y="0" letter-spacing="0.009em">t</tspan><tspan y="0" letter-spacing="0.01em">he</tspan><tspan y="0">r</tspan></text><rect width="476.269" height="18.102" transform="translate(344.718 1070.651)" fill="#46a835"/><rect width="159.48" height="18.102" transform="translate(344.718 1070.651)" fill="#afd49d"/><rect width="159.299" height="18.102" transform="translate(504.199 1070.651)" fill="#8bc376"/><rect width="476.269" height="18.102" transform="translate(344.718 1092.044)" fill="#46a835"/><rect width="159.48" height="18.102" transform="translate(344.718 1092.044)" fill="#afd49d"/><rect width="159.299" height="18.102" transform="translate(504.199 1092.044)" fill="#8bc376"/><rect width="476.269" height="18.102" transform="translate(344.718 1160.414)" fill="#46a835"/><rect width="159.48" height="18.102" transform="translate(344.718 1160.414)" fill="#afd49d"/><rect width="159.299" height="18.102" transform="translate(504.199 1160.414)" fill="#8bc376"/><text transform="translate(65.051 709.224)" fill="#fff" font-size="14" font-family="MuseoSans-900, Museo Sans" font-weight="900"><tspan x="0" y="0" letter-spacing="0.01em">De</tspan><tspan y="0" letter-spacing="0.009em">r</tspan><tspan y="0" letter-spacing="0.01em">ma</tspan><tspan y="0" letter-spacing="0.009em">t</tspan><tspan y="0" letter-spacing="0.01em">o</tspan><tspan y="0" letter-spacing="0.009em">l</tspan><tspan y="0" letter-spacing="0.01em">o</tspan><tspan y="0" letter-spacing="0.009em">g</tspan><tspan y="0" letter-spacing="0.01em">y </tspan><tspan y="0" letter-spacing="0.009em">&amp;</tspan><tspan y="0"> </tspan></text><text transform="translate(172.551 709.224)" fill="#fff" font-size="14" font-family="MuseoSans-900, Museo Sans" font-weight="900"><tspan x="0" y="0" letter-spacing="0.01em">Rhe</tspan><tspan y="0" letter-spacing="0.009em">u</tspan><tspan y="0" letter-spacing="0.01em">m</tspan><tspan y="0" letter-spacing="0.009em">a</tspan><tspan y="0" letter-spacing="0.01em">to</tspan><tspan y="0" letter-spacing="0.009em">l</tspan><tspan y="0" letter-spacing="0.01em">og</tspan><tspan y="0">y</tspan></text><g transform="translate(56 455)"><g clip-path="url(#a)"><path d="M923.7,1H0V-1H923.7Z" transform="translate(0 345.674)" fill="#c1c1c0"/><path d="M923.7,1H0V-1H923.7Z" transform="translate(0 236.608)" fill="#c1c1c0"/></g></g><rect width="161.514" height="18.048" transform="translate(659.059 663.923)" fill="#004589"/><rect width="157.074" height="18.048" transform="translate(344.718 663.95)" fill="#99bde0"/><rect width="157.074" height="18.048" transform="translate(502.106 663.95)" fill="#6c9cd2"/><rect width="162.053" height="18.048" transform="translate(660.106 573.482)" fill="#004589"/><rect width="162.053" height="18.048" transform="translate(821.947 573.482)" fill="#002e53"/><rect width="157.598" height="18.048" transform="translate(344.718 573.509)" fill="#99bde0"/><rect width="157.598" height="18.048" transform="translate(502.632 573.509)" fill="#6c9cd2"/><rect width="83.379" height="18.075" transform="translate(660.239 596.372)" fill="#004589"/><rect width="159.391" height="18.075" transform="translate(344.718 596.399)" fill="#99bde0"/><rect width="155.81" height="18.075" transform="translate(504.428 596.399)" fill="#6c9cd2"/><rect width="159.966" height="18.075" transform="translate(661.022 765.369)" fill="#622382"/><rect width="158.394" height="18.075" transform="translate(344.718 765.397)" fill="#e2cae2"/><rect width="158.394" height="18.075" transform="translate(503.43 765.397)" fill="#b38cbf"/><rect width="159.752" height="18.102" transform="translate(661.055 874.515)" fill="#a10a40"/><rect width="158.847" height="18.102" transform="translate(344.718 874.515)" fill="#f4b5cd"/><rect width="157.49" height="18.102" transform="translate(503.565 874.515)" fill="#e63b75"/><text transform="translate(63.489 818.007)" fill="#fff" font-size="14" font-family="MuseoSans-900, Museo Sans" font-weight="900"><tspan x="0" y="0" letter-spacing="0.009em">R</tspan><tspan y="0" letter-spacing="0.01em">heu</tspan><tspan y="0" letter-spacing="0.009em">m</tspan><tspan y="0" letter-spacing="0.01em">a</tspan><tspan y="0" letter-spacing="0.009em">t</tspan><tspan y="0" letter-spacing="0.01em">olog</tspan><tspan y="0">y</tspan></text><path d="M751.358,574.222l20.507-17.65h-4.928l-20.507,17.65Z" transform="translate(-98.258 339.978)" fill="#e63c74"/><path d="M759.034,574.222h4.929l7.535-6.486,12.972-11.164h-4.929L766.57,567.737Z" transform="translate(-100.862 339.978)" fill="#e63c74"/><path d="M796.846,574.222h4.929l7.535-6.486,12.972-11.164h-4.929l-12.971,11.164Z" transform="translate(-108.677 339.978)" fill="#e63c74"/><path d="M789.17,574.222l20.507-17.65h-4.929l-20.506,17.65Z" transform="translate(-106.072 339.978)" fill="#e63c74"/><path d="M776.566,574.222l20.507-17.65h-4.928l-20.508,17.65Z" transform="translate(-103.467 339.978)" fill="#e63c74"/><path d="M713.546,574.222l20.507-17.65h-4.928l-20.507,17.65Z" transform="translate(-90.443 339.978)" fill="#e63c74"/><path d="M738.754,574.222l20.507-17.65h-4.928l-20.508,17.65Z" transform="translate(-95.653 339.978)" fill="#e63c74"/><path d="M721.221,574.222h4.929l7.535-6.486,12.972-11.164h-4.929l-12.971,11.164Z" transform="translate(-93.048 339.978)" fill="#e63c74"/><path d="M902.607,574.222l20.507-17.65h-4.928l-20.507,17.65Z" transform="translate(-129.515 339.978)" fill="#e63c74"/><path d="M814.378,574.222l20.507-17.65h-4.928l-20.508,17.65Z" transform="translate(-111.281 339.978)" fill="#e63c74"/><path d="M890,574.222l20.507-17.65h-4.928l-20.508,17.65Z" transform="translate(-126.91 339.978)" fill="#e63c74"/><path d="M915.211,574.222l20.507-17.65H930.79l-20.508,17.65Z" transform="translate(-132.12 339.978)" fill="#e63c74"/><path d="M872.47,574.222H877.4l7.535-6.486,12.972-11.164h-4.929l-12.971,11.164Z" transform="translate(-124.305 339.978)" fill="#e63c74"/><path d="M700.942,574.222l20.507-17.65h-4.928l-20.508,17.65Z" transform="translate(-87.838 339.978)" fill="#e63c74"/><path d="M826.983,574.222l20.507-17.65h-4.928l-20.507,17.65Z" transform="translate(-113.886 339.978)" fill="#e63c74"/><path d="M834.658,574.222h4.929l7.535-6.486,12.972-11.164h-4.929l-12.971,11.164Z" transform="translate(-116.491 339.978)" fill="#e63c74"/><path d="M864.795,574.222l20.507-17.65h-4.929l-20.506,17.65Z" transform="translate(-121.701 339.978)" fill="#e63c74"/><path d="M852.191,574.222l20.507-17.65h-4.928l-20.508,17.65Z" transform="translate(-119.096 339.978)" fill="#e63c74"/><path d="M663.13,574.222l20.507-17.65h-4.928L658.2,574.222Z" transform="translate(-80.024 339.978)" fill="#e63c74"/><path d="M511.881,574.222l20.507-17.65H527.46l-20.508,17.65Z" transform="translate(-48.767 339.978)" fill="#e63c74"/><path d="M524.485,574.222l20.507-17.65h-4.929l-20.506,17.65Z" transform="translate(-51.372 339.978)" fill="#e63c74"/><path d="M683.409,574.222h4.929l7.535-6.486,12.972-11.164h-4.929l-12.971,11.164Z" transform="translate(-85.234 339.978)" fill="#e63c74"/><path d="M549.693,574.222l20.507-17.65h-4.928l-20.508,17.65Z" transform="translate(-56.581 339.978)" fill="#e63c74"/><path d="M494.348,574.222h4.929l7.535-6.486,12.972-11.164h-4.929l-12.971,11.164Z" transform="translate(-46.162 339.978)" fill="#e63c74"/><path d="M461.464,574.222l20.507-17.65h-4.928l-20.507,17.65Z" transform="translate(-38.348 339.978)" fill="#e63c74"/><path d="M474.068,574.222l20.507-17.65h-4.928l-20.508,17.65Z" transform="translate(-40.953 339.978)" fill="#e63c74"/><path d="M486.673,574.222l20.507-17.65h-4.928l-20.507,17.65Z" transform="translate(-43.558 339.978)" fill="#e63c74"/><path d="M562.3,574.222l20.507-17.65h-4.928l-20.507,17.65Z" transform="translate(-59.186 339.978)" fill="#e63c74"/><path d="M532.16,574.222h4.929l7.535-6.486L557.6,556.573h-4.929L539.7,567.737Z" transform="translate(-53.977 339.978)" fill="#e63c74"/><path d="M645.6,574.222h4.929l7.535-6.486,12.972-11.164H666.1l-12.971,11.164Z" transform="translate(-77.419 339.978)" fill="#e63c74"/><path d="M637.922,574.222l20.507-17.65H653.5l-20.507,17.65Z" transform="translate(-74.815 339.978)" fill="#e63c74"/><path d="M569.972,574.222H574.9l7.535-6.486,12.972-11.164h-4.929l-12.971,11.164Z" transform="translate(-61.791 339.978)" fill="#e63c74"/><path d="M675.734,574.222l20.507-17.65h-4.928l-20.507,17.65Z" transform="translate(-82.629 339.978)" fill="#e63c74"/><path d="M625.317,574.222l20.507-17.65H640.9l-20.508,17.65Z" transform="translate(-72.21 339.978)" fill="#e63c74"/><path d="M607.785,574.222h4.929l7.535-6.486,12.972-11.164h-4.929l-12.971,11.164Z" transform="translate(-69.605 339.978)" fill="#e63c74"/><path d="M587.505,574.222l20.507-17.65h-4.928l-20.508,17.65Z" transform="translate(-64.396 339.978)" fill="#e63c74"/><path d="M600.109,574.222l20.507-17.65h-4.929l-20.506,17.65Z" transform="translate(-67 339.978)" fill="#e63c74"/><rect width="157.942" height="18.048" transform="translate(344.718 896.324)" fill="#f4b5cd"/><rect width="159.299" height="18.048" transform="translate(661.507 896.379)" fill="#a10a40"/><rect width="397.072" height="18.102" transform="translate(344.718 965.813)" fill="#a10a40"/><rect width="158.575" height="18.102" transform="translate(344.718 965.813)" fill="#f4b5cd"/><rect width="160.205" height="18.102" transform="translate(503.293 965.813)" fill="#e63b75"/><path d="M26.933,950.743a4.606,4.606,0,0,1,3.257,1.179l-.621.938a4.082,4.082,0,0,0-2.585-.976,3.252,3.252,0,0,0-3.307,3.422A3.359,3.359,0,0,0,27,958.842a4.049,4.049,0,0,0,2.763-1.166l.672.9A4.8,4.8,0,0,1,26.958,960a4.627,4.627,0,0,1-.025-9.253Zm5.36,7.1a2.564,2.564,0,0,0,1.964.963,1.856,1.856,0,0,0,1.964-1.812,1.892,1.892,0,0,0-2.04-1.838,2.868,2.868,0,0,0-1.508.444l-.723-.266.443-4.436h4.513v1.09H33.483l-.215,1.889a2.669,2.669,0,0,1-.063.469h.025a2.571,2.571,0,0,1,1.154-.279A2.922,2.922,0,0,1,37.5,956.98,3.022,3.022,0,0,1,34.333,960a3.475,3.475,0,0,1-2.738-1.242Zm7.1-4.411h1.293v1.306H39.388Zm0,5.108h1.293v1.3H39.388Zm9.822-5.26a3.246,3.246,0,0,1,2.408.938l-.583.862a2.6,2.6,0,0,0-1.774-.735,2.184,2.184,0,0,0-2.231,2.281,2.221,2.221,0,0,0,2.269,2.307,2.907,2.907,0,0,0,1.977-.862l.494.9A3.512,3.512,0,0,1,49.21,960a3.359,3.359,0,1,1,0-6.717Zm7.007,0a3.36,3.36,0,1,1-3.46,3.346A3.345,3.345,0,0,1,56.217,953.279Zm0,5.653a2.3,2.3,0,1,0-2.2-2.307A2.216,2.216,0,0,0,56.217,958.931Zm4.98-5.5h1.191v.85a4.5,4.5,0,0,1-.025.469h.025a2.506,2.506,0,0,1,2.205-1.47,1.751,1.751,0,0,1,1.927,1.457h.025a2.58,2.58,0,0,1,2.281-1.457c1.445,0,2.117.824,2.117,2.459v4.106H69.714V956c0-.9-.178-1.61-1.141-1.61a2,2,0,0,0-1.8,1.634,3.824,3.824,0,0,0-.089.888v2.927H65.455V956c0-.837-.127-1.61-1.115-1.61a2.026,2.026,0,0,0-1.838,1.685,3.543,3.543,0,0,0-.076.837v2.927H61.2Zm11.645,0h1.128v.545a4.482,4.482,0,0,1-.025.469h.025a2.326,2.326,0,0,1,2.155-1.166c1.724,0,2.814,1.369,2.814,3.358,0,2.041-1.23,3.359-2.9,3.359a2.232,2.232,0,0,1-1.964-1.052h-.025s.025.229.025.558v2.877h-1.23Zm3,5.514c1.014,0,1.85-.836,1.85-2.294,0-1.394-.747-2.294-1.812-2.294-.964,0-1.851.671-1.851,2.306C74.033,957.8,74.666,958.944,75.845,958.944Zm4.586-8.048h1.23v6.984c0,.773.3.912.684.912a1.979,1.979,0,0,0,.216-.013v1.09a3.445,3.445,0,0,1-.405.025c-.7,0-1.724-.19-1.724-1.8Zm6.26,2.383a2.729,2.729,0,0,1,2.776,3c0,.165-.038.532-.038.532H84.753a2.1,2.1,0,0,0,2.205,2.117,3.058,3.058,0,0,0,1.9-.748l.507.9a3.817,3.817,0,0,1-2.484.912,3.266,3.266,0,0,1-3.4-3.359A3.143,3.143,0,0,1,86.692,953.279Zm1.521,2.611a1.513,1.513,0,0,0-1.546-1.635,1.837,1.837,0,0,0-1.875,1.635Zm2.812-2.459h1.191v.85a4.645,4.645,0,0,1-.025.469h.025a2.506,2.506,0,0,1,2.205-1.47,1.751,1.751,0,0,1,1.927,1.457h.025a2.58,2.58,0,0,1,2.281-1.457c1.445,0,2.117.824,2.117,2.459v4.106H99.542V956c0-.9-.178-1.61-1.141-1.61a2,2,0,0,0-1.8,1.634,3.825,3.825,0,0,0-.089.888v2.927H95.284V956c0-.837-.127-1.61-1.115-1.61a2.026,2.026,0,0,0-1.838,1.685,3.543,3.543,0,0,0-.076.837v2.927H91.025Zm14.408-.152a2.729,2.729,0,0,1,2.776,3c0,.165-.038.532-.038.532h-4.677a2.1,2.1,0,0,0,2.205,2.117,3.055,3.055,0,0,0,1.9-.748l.507.9a3.817,3.817,0,0,1-2.484.912,3.266,3.266,0,0,1-3.4-3.359A3.143,3.143,0,0,1,105.433,953.279Zm1.521,2.611a1.513,1.513,0,0,0-1.546-1.635,1.837,1.837,0,0,0-1.875,1.635Zm2.812-2.459h1.192v.85a4.5,4.5,0,0,1-.025.469h.025a2.61,2.61,0,0,1,2.408-1.47c1.508,0,2.205.824,2.205,2.459v4.106h-1.23v-3.828c0-.9-.19-1.609-1.217-1.609a2.1,2.1,0,0,0-2.028,1.572,3.029,3.029,0,0,0-.1.861v3h-1.229Zm7.97,1.077H116.9v-.988h.874v-1.85h1.192v1.85h1.546v.988h-1.546v2.852a1.274,1.274,0,0,0,1.369,1.445,1.482,1.482,0,0,0,.291-.025v1.09a3.361,3.361,0,0,1-.431.025,2.211,2.211,0,0,1-2.459-2.4Zm10.632-1.229a3.249,3.249,0,0,1,2.409.938l-.583.862a2.6,2.6,0,0,0-1.775-.735,2.185,2.185,0,0,0-2.231,2.281,2.222,2.222,0,0,0,2.269,2.307,2.9,2.9,0,0,0,1.977-.862l.494.9a3.512,3.512,0,0,1-2.56,1.027,3.359,3.359,0,1,1,0-6.717Zm7.008,0a3.36,3.36,0,1,1-3.461,3.346A3.345,3.345,0,0,1,135.376,953.279Zm0,5.653a2.3,2.3,0,1,0-2.205-2.307A2.216,2.216,0,0,0,135.376,958.931Zm4.979-5.5h1.192v.85a4.506,4.506,0,0,1-.025.469h.025a2.505,2.505,0,0,1,2.205-1.47,1.75,1.75,0,0,1,1.926,1.457h.025a2.582,2.582,0,0,1,2.282-1.457c1.445,0,2.117.824,2.117,2.459v4.106h-1.23V956c0-.9-.178-1.61-1.141-1.61a2,2,0,0,0-1.8,1.634,3.868,3.868,0,0,0-.088.888v2.927h-1.23V956c0-.837-.127-1.61-1.115-1.61a2.025,2.025,0,0,0-1.837,1.685,3.542,3.542,0,0,0-.076.837v2.927h-1.23Zm11.645,0h1.128v.545a4.482,4.482,0,0,1-.025.469h.025a2.326,2.326,0,0,1,2.154-1.166c1.724,0,2.814,1.369,2.814,3.358,0,2.041-1.23,3.359-2.9,3.359a2.232,2.232,0,0,1-1.965-1.052H153.2s.025.229.025.558v2.877H152Zm3,5.514c1.014,0,1.85-.836,1.85-2.294,0-1.394-.747-2.294-1.812-2.294-.963,0-1.851.671-1.851,2.306C153.191,957.8,153.825,958.944,155,958.944Zm7.653-5.665a3.36,3.36,0,1,1-3.46,3.346A3.345,3.345,0,0,1,162.657,953.279Zm0,5.653a2.3,2.3,0,1,0-2.2-2.307A2.216,2.216,0,0,0,162.657,958.931Zm4.98-5.5h1.191v.85a4.5,4.5,0,0,1-.025.469h.025a2.611,2.611,0,0,1,2.409-1.47c1.508,0,2.205.824,2.205,2.459v4.106h-1.23v-3.828c0-.9-.19-1.609-1.217-1.609a2.1,2.1,0,0,0-2.028,1.572,3.029,3.029,0,0,0-.1.861v3h-1.229Zm10.467-.152a2.729,2.729,0,0,1,2.775,3c0,.165-.038.532-.038.532h-4.677a2.1,2.1,0,0,0,2.205,2.117,3.055,3.055,0,0,0,1.9-.748l.507.9a3.817,3.817,0,0,1-2.484.912,3.265,3.265,0,0,1-3.4-3.359A3.143,3.143,0,0,1,178.1,953.279Zm1.521,2.611a1.513,1.513,0,0,0-1.546-1.635,1.838,1.838,0,0,0-1.876,1.635Zm2.812-2.459h1.192v.85a4.508,4.508,0,0,1-.025.469h.025a2.611,2.611,0,0,1,2.408-1.47c1.509,0,2.205.824,2.205,2.459v4.106h-1.229v-3.828c0-.9-.19-1.609-1.217-1.609a2.1,2.1,0,0,0-2.028,1.572,3.029,3.029,0,0,0-.1.861v3h-1.23Zm7.971,1.077h-.837v-.988h.875v-1.85h1.192v1.85h1.546v.988h-1.546v2.852a1.274,1.274,0,0,0,1.369,1.445,1.471,1.471,0,0,0,.291-.025v1.09a3.345,3.345,0,0,1-.431.025,2.211,2.211,0,0,1-2.459-2.4Zm8,3.334a2.564,2.564,0,0,0,1.964.963,1.856,1.856,0,0,0,1.964-1.812,1.892,1.892,0,0,0-2.04-1.838,2.868,2.868,0,0,0-1.508.444l-.723-.266.443-4.436h4.513v1.09h-3.422l-.215,1.889a2.668,2.668,0,0,1-.063.469h.025a2.571,2.571,0,0,1,1.154-.279,2.922,2.922,0,0,1,3.118,2.916A3.022,3.022,0,0,1,200.444,960a3.475,3.475,0,0,1-2.738-1.242Zm7.159.672h1.268l-.951,2.611h-.989Zm.013-5.083h1.293v1.306h-1.293Zm10.974-2.687a4.606,4.606,0,0,1,3.257,1.179l-.621.938a4.082,4.082,0,0,0-2.585-.976,3.253,3.253,0,0,0-3.308,3.422,3.359,3.359,0,0,0,3.321,3.536,4.049,4.049,0,0,0,2.763-1.166l.672.9A4.8,4.8,0,0,1,216.575,960a4.627,4.627,0,0,1-.025-9.253Zm5.271.152h2.965a4.474,4.474,0,1,1,0,8.948h-2.965Zm2.877,7.858a3.384,3.384,0,0,0,0-6.768h-1.622v6.768Zm6.551-5.323h1.293v1.306h-1.293Zm0,5.108h1.293v1.3h-1.293Zm9.822-5.26a3.246,3.246,0,0,1,2.408.938l-.583.862a2.6,2.6,0,0,0-1.774-.735,2.184,2.184,0,0,0-2.231,2.281,2.221,2.221,0,0,0,2.269,2.307,2.907,2.907,0,0,0,1.977-.862l.494.9a3.512,3.512,0,0,1-2.56,1.027,3.359,3.359,0,1,1,0-6.717Zm3.94-2.383h1.23v6.984c0,.773.3.912.685.912a1.973,1.973,0,0,0,.215-.013v1.09a3.429,3.429,0,0,1-.405.025c-.7,0-1.724-.19-1.724-1.8Zm3.409,2.535h1.229v3.828c0,.887.178,1.6,1.2,1.6a2.208,2.208,0,0,0,2.079-2.42v-3h1.23v6.413h-1.192v-.849a4.182,4.182,0,0,1,.025-.469h-.025a2.585,2.585,0,0,1-2.357,1.47c-1.445,0-2.193-.761-2.193-2.459Zm7.806,4.753a2.752,2.752,0,0,0,1.837.748c.532,0,1.065-.279,1.065-.8,0-1.178-3.295-.938-3.295-3.029,0-1.166,1.039-1.825,2.319-1.825a2.882,2.882,0,0,1,2.066.709l-.494.926a2.347,2.347,0,0,0-1.584-.57c-.532,0-1.052.228-1.052.785,0,1.154,3.3.9,3.3,3,0,1.065-.912,1.864-2.32,1.864a3.447,3.447,0,0,1-2.433-.938Zm5.93-3.676h-.836v-.988h.874v-1.85h1.192v1.85h1.546v.988h-1.546v2.852a1.274,1.274,0,0,0,1.368,1.445,1.486,1.486,0,0,0,.292-.025v1.09a3.368,3.368,0,0,1-.432.025,2.211,2.211,0,0,1-2.459-2.4Zm7.1-1.229a2.729,2.729,0,0,1,2.776,3c0,.165-.038.532-.038.532h-4.677a2.1,2.1,0,0,0,2.206,2.117,3.055,3.055,0,0,0,1.9-.748l.507.9a3.817,3.817,0,0,1-2.484.912,3.266,3.266,0,0,1-3.4-3.359A3.143,3.143,0,0,1,269.25,953.279Zm1.521,2.611a1.513,1.513,0,0,0-1.546-1.635,1.838,1.838,0,0,0-1.875,1.635Zm2.812-2.459h1.192v1.115a4.581,4.581,0,0,1-.025.482h.025a2.192,2.192,0,0,1,2.028-1.672,2.234,2.234,0,0,1,.317.025V954.6a1.76,1.76,0,0,0-.355-.038,1.946,1.946,0,0,0-1.8,1.508,3.922,3.922,0,0,0-.152,1.153v2.624h-1.23Zm11.127-.152a3.36,3.36,0,1,1-3.46,3.346A3.345,3.345,0,0,1,284.71,953.279Zm0,5.653a2.3,2.3,0,1,0-2.205-2.307A2.215,2.215,0,0,0,284.71,958.931Zm5.283-4.424h-.8v-.988h.8v-.3a2.185,2.185,0,0,1,2.409-2.383,2.633,2.633,0,0,1,.469.038v1.052a1.78,1.78,0,0,0-.317-.025,1.219,1.219,0,0,0-1.343,1.344v.279h1.521v.988H291.21v5.336h-1.217Zm9.783-1.229a2.135,2.135,0,0,1,1.977,1.014h.025a3.627,3.627,0,0,1-.025-.431V950.9h1.229v8.948h-1.165v-.608c0-.253.013-.431.013-.431H301.8A2.246,2.246,0,0,1,299.7,960c-1.737,0-2.827-1.368-2.827-3.359C296.874,954.6,298.078,953.279,299.776,953.279Zm.164,5.653c.95,0,1.851-.672,1.851-2.307,0-1.14-.6-2.281-1.813-2.281-1.014,0-1.85.836-1.85,2.294C298.129,958.031,298.876,958.931,299.941,958.931Zm5.018-8.036H306.2v1.255h-1.242Zm.012,2.535h1.23v6.413h-1.23Zm7.82.989h-3.043v5.424h-1.216v-5.424h-.8v-.989h.8v-.215a2.185,2.185,0,0,1,2.408-2.383,2.622,2.622,0,0,1,.469.038v1.052a1.776,1.776,0,0,0-.317-.025,1.219,1.219,0,0,0-1.344,1.344v.19h3.043v-.215a2.185,2.185,0,0,1,2.408-2.383,2.622,2.622,0,0,1,.469.038v1.052a1.775,1.775,0,0,0-.317-.025,1.219,1.219,0,0,0-1.344,1.344v.19h1.521v.989h-1.521v5.424H312.79Zm6.74-1.141a2.729,2.729,0,0,1,2.776,3c0,.165-.038.532-.038.532h-4.677a2.1,2.1,0,0,0,2.205,2.117,3.055,3.055,0,0,0,1.9-.748l.507.9a3.817,3.817,0,0,1-2.484.912,3.266,3.266,0,0,1-3.4-3.359A3.143,3.143,0,0,1,319.531,953.279Zm1.521,2.611a1.513,1.513,0,0,0-1.546-1.635,1.838,1.838,0,0,0-1.875,1.635Zm2.812-2.459h1.192v1.115a4.581,4.581,0,0,1-.025.482h.025a2.192,2.192,0,0,1,2.028-1.672,2.236,2.236,0,0,1,.317.025V954.6a1.761,1.761,0,0,0-.355-.038,1.946,1.946,0,0,0-1.8,1.508,3.923,3.923,0,0,0-.152,1.153v2.624h-1.23Zm7.54-.152a2.729,2.729,0,0,1,2.776,3c0,.165-.038.532-.038.532h-4.677a2.1,2.1,0,0,0,2.205,2.117,3.055,3.055,0,0,0,1.9-.748l.507.9a3.818,3.818,0,0,1-2.484.912,3.266,3.266,0,0,1-3.4-3.359A3.143,3.143,0,0,1,331.4,953.279Zm1.522,2.611a1.514,1.514,0,0,0-1.547-1.635,1.838,1.838,0,0,0-1.875,1.635Zm2.812-2.459h1.192v.85a4.506,4.506,0,0,1-.025.469h.025a2.61,2.61,0,0,1,2.408-1.47c1.508,0,2.205.824,2.205,2.459v4.106h-1.23v-3.828c0-.9-.19-1.609-1.216-1.609a2.1,2.1,0,0,0-2.028,1.572,3.03,3.03,0,0,0-.1.861v3h-1.23Zm7.971,1.077h-.837v-.988h.875v-1.85h1.191v1.85h1.546v.988h-1.546v2.852a1.274,1.274,0,0,0,1.369,1.445,1.481,1.481,0,0,0,.291-.025v1.09a3.346,3.346,0,0,1-.431.025,2.211,2.211,0,0,1-2.458-2.4Zm4.32-3.612h1.242v1.255h-1.242Zm.013,2.535h1.23v6.413h-1.23Zm6.565,2.409h.278v-.114a1.246,1.246,0,0,0-1.407-1.406,3.254,3.254,0,0,0-1.787.621l-.507-.9a4.024,4.024,0,0,1,2.4-.76,2.278,2.278,0,0,1,2.535,2.509v4.056h-1.141v-.608a4.811,4.811,0,0,1,.025-.507h-.025A2.218,2.218,0,0,1,352.92,960a2.006,2.006,0,0,1-2.18-1.952C350.74,955.928,353.528,955.839,354.606,955.839Zm-1.42,3.169a1.944,1.944,0,0,0,1.711-2.041v-.2h-.317c-.925,0-2.6.063-2.6,1.217A1.074,1.074,0,0,0,353.186,959.007Zm5.058-4.5h-.837v-.988h.874v-1.85h1.192v1.85h1.546v.988h-1.546v2.852a1.274,1.274,0,0,0,1.369,1.445,1.481,1.481,0,0,0,.291-.025v1.09a3.361,3.361,0,0,1-.431.025,2.211,2.211,0,0,1-2.459-2.4Zm4.32-3.612h1.242v1.255h-1.242Zm.013,2.535h1.23v6.413h-1.23Zm6.209-.152a3.36,3.36,0,1,1-3.46,3.346A3.345,3.345,0,0,1,368.786,953.279Zm0,5.653a2.3,2.3,0,1,0-2.205-2.307A2.216,2.216,0,0,0,368.786,958.931Zm4.979-5.5h1.192v.85a4.5,4.5,0,0,1-.025.469h.025a2.611,2.611,0,0,1,2.409-1.47c1.508,0,2.2.824,2.2,2.459v4.106h-1.229v-3.828c0-.9-.19-1.609-1.217-1.609a2.1,2.1,0,0,0-2.028,1.572,3.029,3.029,0,0,0-.1.861v3h-1.23Zm8.009,5.083h1.268l-.951,2.611H381.1Zm.013-5.083h1.293v1.306h-1.293Zm7.033-2.535h4.93v1.09h-3.676v2.941h3.13v1.089h-3.13v3.828h-1.254Zm9.39,2.383a3.246,3.246,0,0,1,2.408.938l-.583.862a2.6,2.6,0,0,0-1.774-.735,2.184,2.184,0,0,0-2.231,2.281,2.221,2.221,0,0,0,2.269,2.307,2.907,2.907,0,0,0,1.977-.862l.494.9a3.512,3.512,0,0,1-2.56,1.027,3.359,3.359,0,1,1,0-6.717Zm4.27-2.383h2.738a4.509,4.509,0,0,1,1.672.2,2.66,2.66,0,0,1-.1,4.842v.025a2.6,2.6,0,0,1,.266.405l1.9,3.472h-1.419l-1.888-3.561h-1.914v3.561h-1.254Zm3.054,4.3a1.488,1.488,0,0,0,1.584-1.622,1.464,1.464,0,0,0-.71-1.381,2.461,2.461,0,0,0-1.229-.2h-1.445v3.207Zm4.878-1.762H411.6v.85a4.511,4.511,0,0,1-.025.469h.025a2.611,2.611,0,0,1,2.409-1.47c1.508,0,2.2.824,2.2,2.459v4.106h-1.229v-3.828c0-.9-.19-1.609-1.217-1.609a2.1,2.1,0,0,0-2.028,1.572,3.026,3.026,0,0,0-.1.861v3h-1.229Zm7.945,0h1.293v1.306h-1.293Zm0,5.108h1.293v1.3h-1.293Zm6.843-5.108h1.192v.85a4.5,4.5,0,0,1-.025.469h.025a2.611,2.611,0,0,1,2.409-1.47c1.508,0,2.2.824,2.2,2.459v4.106h-1.229v-3.828c0-.9-.19-1.609-1.217-1.609a2.1,2.1,0,0,0-2.028,1.572,3.03,3.03,0,0,0-.1.861v3H425.2Zm10.467-.152a2.729,2.729,0,0,1,2.776,3c0,.165-.038.532-.038.532h-4.677a2.1,2.1,0,0,0,2.206,2.117,3.055,3.055,0,0,0,1.9-.748l.507.9a3.817,3.817,0,0,1-2.484.912,3.266,3.266,0,0,1-3.4-3.359A3.143,3.143,0,0,1,435.666,953.279Zm1.521,2.611a1.513,1.513,0,0,0-1.546-1.635,1.838,1.838,0,0,0-1.875,1.635Zm5.8-2.611a3.36,3.36,0,1,1-3.46,3.346A3.345,3.345,0,0,1,442.99,953.279Zm0,5.653a2.3,2.3,0,1,0-2.206-2.307A2.216,2.216,0,0,0,442.99,958.931Zm4.98-5.5h1.191v.85a4.5,4.5,0,0,1-.025.469h.025a2.611,2.611,0,0,1,2.409-1.47c1.508,0,2.206.824,2.206,2.459v4.106h-1.23v-3.828c0-.9-.19-1.609-1.217-1.609a2.1,2.1,0,0,0-2.028,1.572,3.028,3.028,0,0,0-.1.861v3H447.97Zm11.05,2.409h.279v-.114a1.246,1.246,0,0,0-1.407-1.406,3.25,3.25,0,0,0-1.787.621l-.507-.9a4.024,4.024,0,0,1,2.4-.76,2.278,2.278,0,0,1,2.535,2.509v4.056h-1.14v-.608a4.811,4.811,0,0,1,.025-.507h-.025A2.218,2.218,0,0,1,457.335,960a2.006,2.006,0,0,1-2.18-1.952C455.154,955.928,457.942,955.839,459.02,955.839Zm-1.419,3.169a1.944,1.944,0,0,0,1.711-2.041v-.2h-.317c-.925,0-2.6.063-2.6,1.217A1.075,1.075,0,0,0,457.6,959.007Zm5.056-4.5h-.837v-.988h.874v-1.85h1.192v1.85h1.546v.988h-1.546v2.852a1.274,1.274,0,0,0,1.369,1.445,1.481,1.481,0,0,0,.291-.025v1.09a3.361,3.361,0,0,1-.431.025,2.211,2.211,0,0,1-2.459-2.4Zm7.68,1.331h.278v-.114a1.246,1.246,0,0,0-1.407-1.406,3.254,3.254,0,0,0-1.787.621l-.507-.9a4.025,4.025,0,0,1,2.4-.76,2.278,2.278,0,0,1,2.535,2.509v4.056H470.7v-.608a4.811,4.811,0,0,1,.025-.507H470.7A2.218,2.218,0,0,1,468.65,960a2.006,2.006,0,0,1-2.18-1.952C466.47,955.928,469.258,955.839,470.336,955.839Zm-1.42,3.169a1.944,1.944,0,0,0,1.711-2.041v-.2h-.317c-.925,0-2.6.063-2.6,1.217A1.074,1.074,0,0,0,468.916,959.007Zm4.751-8.112h1.23v6.984c0,.773.3.912.685.912a1.953,1.953,0,0,0,.215-.013v1.09a3.428,3.428,0,0,1-.405.025c-.7,0-1.724-.19-1.724-1.8Zm7.071,0h4.931v1.09h-3.676v2.941h3.13v1.089h-3.13v3.828h-1.255Zm9.391,2.383a3.246,3.246,0,0,1,2.408.938l-.583.862a2.6,2.6,0,0,0-1.775-.735,2.184,2.184,0,0,0-2.23,2.281,2.221,2.221,0,0,0,2.268,2.307,2.908,2.908,0,0,0,1.978-.862l.494.9a3.514,3.514,0,0,1-2.56,1.027,3.359,3.359,0,1,1,0-6.717Zm7.336.152h1.192v1.115a4.581,4.581,0,0,1-.025.482h.025a2.192,2.192,0,0,1,2.028-1.672,2.249,2.249,0,0,1,.317.025V954.6a1.771,1.771,0,0,0-.355-.038,1.946,1.946,0,0,0-1.8,1.508,3.9,3.9,0,0,0-.152,1.153v2.624h-1.23Zm7.54-.152a2.729,2.729,0,0,1,2.776,3c0,.165-.038.532-.038.532h-4.677a2.1,2.1,0,0,0,2.205,2.117,3.055,3.055,0,0,0,1.9-.748l.507.9A3.817,3.817,0,0,1,505.2,960a3.266,3.266,0,0,1-3.4-3.359A3.143,3.143,0,0,1,505,953.279Zm1.521,2.611a1.513,1.513,0,0,0-1.546-1.635,1.837,1.837,0,0,0-1.876,1.635Zm5.791-2.611a3.249,3.249,0,0,1,2.409.938l-.583.862a2.6,2.6,0,0,0-1.775-.735,2.185,2.185,0,0,0-2.231,2.281,2.222,2.222,0,0,0,2.269,2.307,2.9,2.9,0,0,0,1.977-.862l.494.9a3.512,3.512,0,0,1-2.56,1.027,3.359,3.359,0,1,1,0-6.717Zm6.779,0a2.729,2.729,0,0,1,2.776,3c0,.165-.038.532-.038.532h-4.677a2.1,2.1,0,0,0,2.206,2.117,3.055,3.055,0,0,0,1.9-.748l.507.9a3.817,3.817,0,0,1-2.484.912,3.266,3.266,0,0,1-3.4-3.359A3.143,3.143,0,0,1,519.1,953.279Zm1.521,2.611a1.513,1.513,0,0,0-1.546-1.635,1.838,1.838,0,0,0-1.875,1.635Zm2.812-2.459h1.128v.545a4.469,4.469,0,0,1-.025.469h.025a2.326,2.326,0,0,1,2.155-1.166c1.723,0,2.813,1.369,2.813,3.358,0,2.041-1.229,3.359-2.9,3.359a2.232,2.232,0,0,1-1.964-1.052h-.025s.025.229.025.558v2.877h-1.23Zm3,5.514c1.014,0,1.851-.836,1.851-2.294,0-1.394-.748-2.294-1.813-2.294-.963,0-1.85.671-1.85,2.306C524.62,957.8,525.254,958.944,526.432,958.944Zm4.929-4.436h-.836v-.988h.874v-1.85h1.192v1.85h1.546v.988h-1.546v2.852a1.274,1.274,0,0,0,1.368,1.445,1.473,1.473,0,0,0,.291-.025v1.09a3.345,3.345,0,0,1-.431.025,2.211,2.211,0,0,1-2.458-2.4Zm7.325-1.229a3.36,3.36,0,1,1-3.461,3.346A3.345,3.345,0,0,1,538.686,953.279Zm0,5.653a2.3,2.3,0,1,0-2.206-2.307A2.216,2.216,0,0,0,538.686,958.931Zm4.979-5.5h1.192v1.115a4.581,4.581,0,0,1-.025.482h.025a2.192,2.192,0,0,1,2.028-1.672,2.234,2.234,0,0,1,.317.025V954.6a1.761,1.761,0,0,0-.355-.038,1.946,1.946,0,0,0-1.8,1.508,3.923,3.923,0,0,0-.152,1.153v2.624h-1.23Zm5.119,5.083h1.268l-.951,2.611h-.988Zm.013-5.083h1.292v1.306H548.8Zm7.033-2.535h1.254v8.948H555.83Zm3.751,0h1.254v7.858h4.006v1.09h-5.26Zm6.754,2.535h1.293v1.306h-1.293Zm0,5.108h1.293v1.3h-1.293Zm6.83-7.643h1.242v1.255h-1.242Zm.013,2.535h1.23v6.413h-1.23Zm3.219,0h1.192v.85a4.5,4.5,0,0,1-.025.469h.025a2.61,2.61,0,0,1,2.408-1.47c1.508,0,2.206.824,2.206,2.459v4.106h-1.23v-3.828c0-.9-.19-1.609-1.216-1.609a2.1,2.1,0,0,0-2.028,1.572,3.028,3.028,0,0,0-.1.861v3H576.4Zm7.971,1.077h-.837v-.988h.875v-1.85H585.6v1.85h1.546v.988H585.6v2.852a1.274,1.274,0,0,0,1.369,1.445,1.481,1.481,0,0,0,.291-.025v1.09a3.346,3.346,0,0,1-.431.025,2.211,2.211,0,0,1-2.459-2.4Zm7.1-1.229a2.729,2.729,0,0,1,2.776,3c0,.165-.038.532-.038.532h-4.677a2.1,2.1,0,0,0,2.206,2.117,3.058,3.058,0,0,0,1.9-.748l.507.9a3.818,3.818,0,0,1-2.484.912,3.266,3.266,0,0,1-3.4-3.359A3.143,3.143,0,0,1,591.463,953.279Zm1.521,2.611a1.513,1.513,0,0,0-1.546-1.635,1.837,1.837,0,0,0-1.875,1.635Zm2.812-2.459h1.191v1.115a4.715,4.715,0,0,1-.025.482h.025a2.193,2.193,0,0,1,2.029-1.672,2.249,2.249,0,0,1,.317.025V954.6a1.77,1.77,0,0,0-.355-.038,1.946,1.946,0,0,0-1.8,1.508,3.9,3.9,0,0,0-.152,1.153v2.624H595.8Zm4.739-2.535h1.23v6.984c0,.773.3.912.685.912a1.958,1.958,0,0,0,.215-.013v1.09a3.431,3.431,0,0,1-.406.025c-.7,0-1.724-.19-1.724-1.8Zm6.261,2.383a2.729,2.729,0,0,1,2.775,3c0,.165-.038.532-.038.532h-4.677a2.1,2.1,0,0,0,2.206,2.117,3.055,3.055,0,0,0,1.9-.748l.508.9a3.821,3.821,0,0,1-2.485.912,3.266,3.266,0,0,1-3.4-3.359A3.143,3.143,0,0,1,606.8,953.279Zm1.521,2.611a1.513,1.513,0,0,0-1.546-1.635,1.838,1.838,0,0,0-1.876,1.635Zm2.723-2.459h1.23v3.828c0,.887.178,1.6,1.2,1.6a2.208,2.208,0,0,0,2.079-2.42v-3h1.23v6.413H615.59v-.849a4.192,4.192,0,0,1,.025-.469h-.025a2.587,2.587,0,0,1-2.358,1.47c-1.445,0-2.193-.761-2.193-2.459Zm7.73-2.535H620v4.892h.9l1.749-2.358h1.395l-2.129,2.827v.025l2.37,3.561H622.85l-1.926-3.016H620v3.016h-1.229Zm6.716,0h1.242v1.255h-1.242Zm.013,2.535h1.23v6.413H625.5Zm3.219,0h1.192v.85a4.511,4.511,0,0,1-.025.469h.025a2.61,2.61,0,0,1,2.408-1.47c1.508,0,2.205.824,2.205,2.459v4.106h-1.23v-3.828c0-.9-.19-1.609-1.216-1.609a2.1,2.1,0,0,0-2.028,1.572,3.03,3.03,0,0,0-.1.861v3h-1.23Zm8.009,5.083h1.267l-.95,2.611h-.989Zm.013-5.083h1.292v1.306h-1.292Zm8.947-1.445h-3.067V950.9h7.389v1.09h-3.068v7.858h-1.254Zm5.664-1.09h1.242l3.98,5.818c.329.482.748,1.293.748,1.293h.025s-.089-.8-.089-1.293V950.9h1.254v8.948H657.28l-3.993-5.8c-.329-.494-.747-1.3-.747-1.3h-.026s.088.8.088,1.3v5.8h-1.254Zm9.656,0h4.931v1.09h-3.676v2.941h3.131v1.089h-3.131v3.828H661Zm6.412,2.535h1.292v1.306h-1.292Zm0,5.108h1.292v1.3h-1.292Zm7.109-4.031h-.837v-.988h.875v-1.85h1.191v1.85H677.3v.988h-1.546v2.852a1.274,1.274,0,0,0,1.369,1.445,1.483,1.483,0,0,0,.291-.025v1.09a3.363,3.363,0,0,1-.431.025,2.211,2.211,0,0,1-2.459-2.4Zm4.244-1.077H680v3.828c0,.887.178,1.6,1.2,1.6a2.208,2.208,0,0,0,2.079-2.42v-3h1.229v6.413h-1.191v-.849a4.192,4.192,0,0,1,.025-.469h-.025a2.587,2.587,0,0,1-2.358,1.47c-1.445,0-2.193-.761-2.193-2.459Zm7.73,0h1.191v.85a4.49,4.49,0,0,1-.025.469h.025a2.506,2.506,0,0,1,2.205-1.47,1.751,1.751,0,0,1,1.927,1.457h.025a2.58,2.58,0,0,1,2.281-1.457c1.445,0,2.117.824,2.117,2.459v4.106h-1.229V956c0-.9-.178-1.61-1.141-1.61a2,2,0,0,0-1.8,1.634,3.827,3.827,0,0,0-.089.888v2.927h-1.229V956c0-.837-.127-1.61-1.115-1.61a2.026,2.026,0,0,0-1.838,1.685,3.546,3.546,0,0,0-.076.837v2.927H686.5Zm14.636-.152a3.36,3.36,0,1,1-3.461,3.346A3.345,3.345,0,0,1,701.136,953.279Zm0,5.653a2.3,2.3,0,1,0-2.206-2.307A2.215,2.215,0,0,0,701.136,958.931Zm4.979-5.5h1.192v1.115a4.559,4.559,0,0,1-.026.482h.026a2.192,2.192,0,0,1,2.028-1.672,2.25,2.25,0,0,1,.317.025V954.6a1.759,1.759,0,0,0-.355-.038,1.946,1.946,0,0,0-1.8,1.508,3.9,3.9,0,0,0-.151,1.153v2.624h-1.23Zm8.135,0h1.192v.85a4.511,4.511,0,0,1-.025.469h.025a2.61,2.61,0,0,1,2.408-1.47c1.509,0,2.206.824,2.206,2.459v4.106h-1.229v-3.828c0-.9-.191-1.609-1.217-1.609a2.1,2.1,0,0,0-2.028,1.572,3.028,3.028,0,0,0-.1.861v3h-1.23Zm10.467-.152a2.729,2.729,0,0,1,2.776,3c0,.165-.038.532-.038.532h-4.677a2.1,2.1,0,0,0,2.206,2.117,3.055,3.055,0,0,0,1.9-.748l.507.9a3.817,3.817,0,0,1-2.484.912,3.266,3.266,0,0,1-3.4-3.359A3.143,3.143,0,0,1,724.717,953.279Zm1.521,2.611a1.513,1.513,0,0,0-1.546-1.635,1.837,1.837,0,0,0-1.875,1.635Zm5.791-2.611a3.249,3.249,0,0,1,2.409.938l-.583.862a2.6,2.6,0,0,0-1.775-.735,2.185,2.185,0,0,0-2.231,2.281,2.222,2.222,0,0,0,2.269,2.307,2.9,2.9,0,0,0,1.977-.862l.494.9a3.512,3.512,0,0,1-2.56,1.027,3.359,3.359,0,1,1,0-6.717Zm4.017.152h1.191v1.115a4.581,4.581,0,0,1-.025.482h.025a2.192,2.192,0,0,1,2.029-1.672,2.248,2.248,0,0,1,.317.025V954.6a1.77,1.77,0,0,0-.355-.038,1.945,1.945,0,0,0-1.8,1.508,3.9,3.9,0,0,0-.152,1.153v2.624h-1.229Zm7.768-.152a3.36,3.36,0,1,1-3.461,3.346A3.345,3.345,0,0,1,743.813,953.279Zm0,5.653a2.3,2.3,0,1,0-2.206-2.307A2.215,2.215,0,0,0,743.813,958.931Zm5.055-.748a2.749,2.749,0,0,0,1.837.748c.532,0,1.065-.279,1.065-.8,0-1.178-3.3-.938-3.3-3.029,0-1.166,1.039-1.825,2.32-1.825a2.884,2.884,0,0,1,2.066.709l-.494.926a2.347,2.347,0,0,0-1.584-.57c-.532,0-1.052.228-1.052.785,0,1.154,3.3.9,3.3,3,0,1.065-.913,1.864-2.32,1.864a3.447,3.447,0,0,1-2.433-.938Zm5.651-7.288h1.242v1.255h-1.242Zm.013,2.535h1.23v6.413h-1.23Zm3.295,4.753a2.752,2.752,0,0,0,1.837.748c.532,0,1.065-.279,1.065-.8,0-1.178-3.295-.938-3.295-3.029,0-1.166,1.039-1.825,2.319-1.825a2.882,2.882,0,0,1,2.066.709l-.494.926a2.347,2.347,0,0,0-1.584-.57c-.532,0-1.052.228-1.052.785,0,1.154,3.3.9,3.3,3,0,1.065-.912,1.864-2.32,1.864a3.447,3.447,0,0,1-2.433-.938Zm9.326-3.676h-.8v-.988h.8v-.3a2.185,2.185,0,0,1,2.408-2.383,2.622,2.622,0,0,1,.469.038v1.052a1.764,1.764,0,0,0-.317-.025,1.219,1.219,0,0,0-1.344,1.344v.279h1.522v.988H768.37v5.336h-1.216Zm7.325,1.331h.279v-.114a1.246,1.246,0,0,0-1.407-1.406,3.254,3.254,0,0,0-1.787.621l-.507-.9a4.025,4.025,0,0,1,2.4-.76,2.278,2.278,0,0,1,2.535,2.509v4.056h-1.141v-.608a4.811,4.811,0,0,1,.025-.507h-.025A2.218,2.218,0,0,1,772.792,960a2.006,2.006,0,0,1-2.18-1.952C770.612,955.928,773.4,955.839,774.478,955.839Zm-1.42,3.169a1.944,1.944,0,0,0,1.711-2.041v-.2h-.317c-.926,0-2.6.063-2.6,1.217A1.074,1.074,0,0,0,773.058,959.007Zm7.807-5.729a3.246,3.246,0,0,1,2.408.938l-.583.862a2.6,2.6,0,0,0-1.774-.735,2.184,2.184,0,0,0-2.231,2.281,2.221,2.221,0,0,0,2.269,2.307,2.907,2.907,0,0,0,1.977-.862l.494.9a3.514,3.514,0,0,1-2.56,1.027,3.359,3.359,0,1,1,0-6.717Zm4.282,1.229h-.837v-.988h.875v-1.85h1.191v1.85h1.546v.988h-1.546v2.852a1.274,1.274,0,0,0,1.369,1.445,1.481,1.481,0,0,0,.291-.025v1.09a3.363,3.363,0,0,1-.431.025,2.211,2.211,0,0,1-2.459-2.4Zm7.324-1.229a3.36,3.36,0,1,1-3.46,3.346A3.345,3.345,0,0,1,792.471,953.279Zm0,5.653a2.3,2.3,0,1,0-2.2-2.307A2.216,2.216,0,0,0,792.471,958.931Zm4.98-5.5h1.191v1.115a4.581,4.581,0,0,1-.025.482h.025a2.192,2.192,0,0,1,2.028-1.672,2.252,2.252,0,0,1,.317.025V954.6a1.772,1.772,0,0,0-.355-.038,1.945,1.945,0,0,0-1.8,1.508,3.9,3.9,0,0,0-.152,1.153v2.624h-1.229Zm4.373,5.108h1.292v1.3h-1.292Z" transform="translate(51.375 258.519)" fill="#1a1818"/><g transform="translate(56 455)"><g clip-path="url(#a)"><text transform="translate(17.149 786.641)" fill="#1a1818" font-size="11" font-family="MuseoSans-500, Museo Sans" font-weight="500"><tspan x="0" y="0" letter-spacing="0.004em">a</tspan><tspan y="0" letter-spacing="0.005em">: Pha</tspan><tspan y="0" letter-spacing="0.004em">s</tspan><tspan y="0" letter-spacing="0.005em">e II </tspan><tspan y="0" letter-spacing="0.004em">s</tspan><tspan y="0" letter-spacing="0.005em">tud</tspan><tspan y="0" letter-spacing="0.004em">i</tspan><tspan y="0" letter-spacing="0.005em">e</tspan><tspan y="0" letter-spacing="0.004em">s</tspan><tspan y="0" xml:space="preserve" letter-spacing="0.005em"> n</tspan><tspan y="0" letter-spacing="0.004em">o</tspan><tspan y="0" letter-spacing="0.005em">t app</tspan><tspan y="0" letter-spacing="0.004em">l</tspan><tspan y="0" letter-spacing="0.005em">i</tspan><tspan y="0" letter-spacing="0.004em">c</tspan><tspan y="0" letter-spacing="0.005em">able; b: I</tspan><tspan y="0" letter-spacing="0.004em">n</tspan><tspan y="0" letter-spacing="0.005em"> </tspan><tspan y="0" letter-spacing="0.004em">colla</tspan><tspan y="0" letter-spacing="0.005em">bo</tspan><tspan y="0" letter-spacing="0.004em">r</tspan><tspan y="0" letter-spacing="0.002em">a</tspan><tspan y="0" letter-spacing="0.005em">ti</tspan><tspan y="0" letter-spacing="0.004em">on</tspan><tspan y="0" letter-spacing="0.005em"> </tspan><tspan y="0" letter-spacing="0.004em">wi</tspan><tspan y="0" letter-spacing="0.005em">t</tspan><tspan y="0" letter-spacing="0.004em">h</tspan><tspan y="0" xml:space="preserve" letter-spacing="0.005em"> Bi</tspan><tspan y="0" letter-spacing="0.004em">o</tspan><tspan y="0" letter-spacing="0.005em">g</tspan><tspan y="0" letter-spacing="0.004em">e</tspan><tspan y="0" letter-spacing="0.005em">n</tspan><tspan y="0">.</tspan></text><path d="M1,49.428H-1V0H1Z" transform="translate(447.386 0)" fill="#868686"/><path d="M1,49.428H-1V0H1Z" transform="translate(605.261 0)" fill="#868686"/><path d="M1,49.428H-1V0H1Z" transform="translate(765.516 0)" fill="#868686"/><path d="M924.119,1H0V-1H924.119Z" transform="translate(0.793 49.261)" fill="#c1c1c0"/><path d="M1,738.424H-1V0H1Z" transform="translate(288.718 0)" fill="#c1c1c0"/></g></g></g></svg>