<svg xmlns="http://www.w3.org/2000/svg" width="112" height="35.913" viewBox="0 0 112 35.913"><g transform="translate(-963 -156.588)"><g transform="translate(963 176.596)"><g transform="translate(0 -20.008)"><g transform="translate(0)"><path d="M44.244,28.086a2.552,2.552,0,0,1-.842.816,2.555,2.555,0,0,1-3.435-.816A3.585,3.585,0,0,1,39.5,26.9a6.608,6.608,0,0,1-.146-1.387,7.254,7.254,0,0,1,.135-1.411,3.542,3.542,0,0,1,.457-1.193,2.606,2.606,0,0,1,.843-.839,2.423,2.423,0,0,1,1.3-.322,2.377,2.377,0,0,1,1.272.322,2.684,2.684,0,0,1,.855.851,3.709,3.709,0,0,1,.48,1.206,6.63,6.63,0,0,1,.147,1.387A7.135,7.135,0,0,1,44.7,26.9a3.42,3.42,0,0,1-.457,1.181M46.9,21.109a5.048,5.048,0,0,0-1.687-1.422,5.157,5.157,0,0,0-2.425-.537,4.675,4.675,0,0,0-2.035.444,3.6,3.6,0,0,0-1.448,1.294v-1a.419.419,0,0,0-.417-.42H36.5a.419.419,0,0,0-.417.42V35.127a.523.523,0,0,0,.52.525h2.336a.523.523,0,0,0,.52-.525V30.111a3.9,3.9,0,0,0,1.459,1.226,4.641,4.641,0,0,0,2.047.455A4.75,4.75,0,0,0,46.911,29.9a5.969,5.969,0,0,0,.98-1.976,8.344,8.344,0,0,0,.322-2.318,9.212,9.212,0,0,0-.322-2.443,6.04,6.04,0,0,0-.991-2.058" transform="translate(-4.455 -3.233)" fill="#4b4f54" fill-rule="evenodd"/><path d="M61.118,19.931a3.245,3.245,0,0,0-1.339-1.01,5.551,5.551,0,0,0-2.158-.362,4.307,4.307,0,0,0-1.9.478,3.8,3.8,0,0,0-1.538,1.429v-5.7a.406.406,0,0,0-.4-.407H51.21a.406.406,0,0,0-.4.407V30.387a.513.513,0,0,0,.511.515h2.356a.513.513,0,0,0,.511-.515V24.6a4.393,4.393,0,0,1,.578-2.565,2.176,2.176,0,0,1,1.857-.764,1.7,1.7,0,0,1,1.558.69,4.148,4.148,0,0,1,.444,2.156v6.226a.552.552,0,0,0,.549.554h2.279A.552.552,0,0,0,62,30.347V23.523a9.762,9.762,0,0,0-.2-2.025,3.933,3.933,0,0,0-.685-1.568" transform="translate(-6.271 -2.641)" fill="#4b4f54" fill-rule="evenodd"/><path d="M72.283,25.757v1.071a6.307,6.307,0,0,1-.057.726,2.419,2.419,0,0,1-.3.881,2.074,2.074,0,0,1-.749.744,2.789,2.789,0,0,1-1.444.311,3.962,3.962,0,0,1-.739-.068,1.759,1.759,0,0,1-.613-.231,1.164,1.164,0,0,1-.408-.445,1.478,1.478,0,0,1-.151-.7,1.538,1.538,0,0,1,.151-.724,1.413,1.413,0,0,1,.4-.47,2.059,2.059,0,0,1,.595-.3,5.734,5.734,0,0,1,.708-.181c.251-.045.51-.083.771-.114s.51-.07.746-.116a5.3,5.3,0,0,0,.669-.174,1.63,1.63,0,0,0,.419-.208m3.468,4.554a12.487,12.487,0,0,1-.091-1.531V22.6a2.955,2.955,0,0,0-.493-1.777,3.362,3.362,0,0,0-1.256-1.044,5.578,5.578,0,0,0-1.685-.5,11.216,11.216,0,0,0-3.771.07,5.63,5.63,0,0,0-1.765.664,3.975,3.975,0,0,0-1.3,1.24,3.609,3.609,0,0,0-.533,1.473.477.477,0,0,0,.47.545H67.77a.474.474,0,0,0,.462-.383,1.6,1.6,0,0,1,.564-1.009,2.381,2.381,0,0,1,1.461-.4,5.342,5.342,0,0,1,.8.057,1.725,1.725,0,0,1,.635.22,1.2,1.2,0,0,1,.43.456,1.691,1.691,0,0,1,.162.807.81.81,0,0,1-.271.711,2.117,2.117,0,0,1-.838.388,8.552,8.552,0,0,1-1.243.2c-.472.046-.956.108-1.439.184a13.861,13.861,0,0,0-1.454.312,4.171,4.171,0,0,0-1.3.6,3.051,3.051,0,0,0-.934,1.07,3.571,3.571,0,0,0-.361,1.7,3.844,3.844,0,0,0,.314,1.615,3.083,3.083,0,0,0,.875,1.129,3.676,3.676,0,0,0,1.3.656,5.842,5.842,0,0,0,1.591.209,7.371,7.371,0,0,0,2.162-.325,4.279,4.279,0,0,0,1.745-1.036c.016.148.038.3.067.442.015.078.032.154.052.231a.508.508,0,0,0,.49.39h2.325a.5.5,0,0,0,.485-.63,4.212,4.212,0,0,1-.1-.554" transform="translate(-7.955 -3.233)" fill="#4b4f54" fill-rule="evenodd"/><path d="M89.408,26.8H87.035a.438.438,0,0,0-.43.342,2.913,2.913,0,0,1-.716,1.437,2.3,2.3,0,0,1-1.738.633,2.213,2.213,0,0,1-1.237-.333,2.5,2.5,0,0,1-.809-.86,4,4,0,0,1-.436-1.185,6.461,6.461,0,0,1-.135-1.3,6.747,6.747,0,0,1,.135-1.33,3.935,3.935,0,0,1,.458-1.218,2.772,2.772,0,0,1,.833-.9,2.2,2.2,0,0,1,1.259-.344,2.054,2.054,0,0,1,2.254,1.65.52.52,0,0,0,.5.4h2.3a.526.526,0,0,0,.518-.6,4.3,4.3,0,0,0-.5-1.491,4.574,4.574,0,0,0-1.261-1.424,5.462,5.462,0,0,0-1.754-.849,7.429,7.429,0,0,0-2.036-.278,6.481,6.481,0,0,0-2.58.488A5.457,5.457,0,0,0,79.747,21a5.861,5.861,0,0,0-1.188,2.07,8.09,8.09,0,0,0-.4,2.585,6.8,6.8,0,0,0,.438,2.473,5.791,5.791,0,0,0,1.222,1.942,5.448,5.448,0,0,0,1.9,1.269,6.487,6.487,0,0,0,2.453.453,5.944,5.944,0,0,0,3.9-1.257,5.293,5.293,0,0,0,1.773-3.195.457.457,0,0,0-.094-.377.438.438,0,0,0-.34-.162" transform="translate(-9.647 -3.233)" fill="#4b4f54" fill-rule="evenodd"/><path d="M118.136,14.352h-4.2a.553.553,0,0,0-.528.388L109.96,25.547,106.312,14.73a.555.555,0,0,0-.525-.378h-4.206a.557.557,0,0,0-.554.559V30.22a.678.678,0,0,0,.675.68h2.142a.678.678,0,0,0,.675-.68V19.608l3.754,10.838a.675.675,0,0,0,.637.456h1.9a.675.675,0,0,0,.637-.458L115.2,19.5V30.22a.678.678,0,0,0,.675.68h2.141a.678.678,0,0,0,.675-.68V14.911a.557.557,0,0,0-.554-.559" transform="translate(-12.47 -2.641)" fill="#4b4f54" fill-rule="evenodd"/><path d="M125.825,14.352h-2.418a.654.654,0,0,0-.651.656V30.22a.678.678,0,0,0,.674.68h2.37a.678.678,0,0,0,.675-.68V15.008a.654.654,0,0,0-.651-.656" transform="translate(-15.153 -2.641)" fill="#4b4f54" fill-rule="evenodd"/><path d="M98.485,18.979H96.54V15.16l-3.1,1.805a.559.559,0,0,0-.277.484v1.531H91.721a.52.52,0,0,0-.517.521v1.283a.52.52,0,0,0,.517.522h1.442v6.936a3.14,3.14,0,0,0,.3,1.482,2.2,2.2,0,0,0,.836.878,3.424,3.424,0,0,0,1.209.411,9.449,9.449,0,0,0,1.435.1c.314,0,.645-.008.983-.023.181-.009.354-.022.515-.038a.522.522,0,0,0,.464-.525V28.874a.473.473,0,0,0-.518-.477l-.038,0c-.163.015-.337.022-.517.022a1.524,1.524,0,0,1-1.043-.255,1.558,1.558,0,0,1-.253-1.052v-5.81h1.944a.427.427,0,0,0,.425-.428V19.408a.427.427,0,0,0-.425-.428" transform="translate(-11.258 -2.741)" fill="#4b4f54" fill-rule="evenodd"/><g transform="translate(0 3.826)"><path d="M27.082,7.309,15.069.314a2.023,2.023,0,0,0-2.038,0L1.019,7.309A2.058,2.058,0,0,0,0,9.088V23.077a2.058,2.058,0,0,0,1.019,1.779l6.007,3.5V12.392a.981.981,0,0,1,.485-.847l3.028-1.763,2.985-1.738a1.048,1.048,0,0,1,1.055,0l2.98,1.735h0l2.986,1.739a1.072,1.072,0,0,1,.531.927v3.473h0v3.5a1.015,1.015,0,0,1-.5.878l-3.01,1.752h0L15,23.546a.633.633,0,0,1-.949-.553V20.635a1.088,1.088,0,0,1,.538-.94L17.1,18.229a.925.925,0,0,0,.458-.8V14.409a.932.932,0,0,0-.46-.8L14.05,11.827h0L11.2,10.171a.444.444,0,0,0-.666.388V30.4l2.494,1.452a2.023,2.023,0,0,0,2.038,0l12.013-6.994A2.058,2.058,0,0,0,28.1,23.077V9.088a2.058,2.058,0,0,0-1.019-1.779" transform="translate(0 -0.039)" fill="#4b4f54" fill-rule="evenodd"/></g><path d="M37.8,8.011v-6.9h2.236a8.11,8.11,0,0,1,1.657.1,1.81,1.81,0,0,1,.993.676,2.142,2.142,0,0,1,.4,1.344A2.252,2.252,0,0,1,42.857,4.3a1.892,1.892,0,0,1-.586.68,2.02,2.02,0,0,1-.723.327,7.955,7.955,0,0,1-1.445.1h-.909v2.6Zm1.394-5.734V4.236h.763a3.6,3.6,0,0,0,1.1-.108.915.915,0,0,0,.436-.339.928.928,0,0,0,.158-.537.892.892,0,0,0-.221-.621.964.964,0,0,0-.56-.306,6.7,6.7,0,0,0-1-.047Zm6.295,5.734H44.166v-5h1.229v.711a2.137,2.137,0,0,1,.567-.664,1.044,1.044,0,0,1,.572-.16,1.679,1.679,0,0,1,.871.25L47,4.3a1.161,1.161,0,0,0-.621-.217.734.734,0,0,0-.471.153,1.046,1.046,0,0,0-.3.553,7.859,7.859,0,0,0-.111,1.676Zm2.18-2.571a2.7,2.7,0,0,1,.325-1.276,2.23,2.23,0,0,1,.92-.942,2.732,2.732,0,0,1,1.33-.325,2.5,2.5,0,0,1,1.86.737A2.546,2.546,0,0,1,52.829,5.5,2.576,2.576,0,0,1,52.1,7.378a2.474,2.474,0,0,1-1.843.746,2.9,2.9,0,0,1-1.311-.311,2.132,2.132,0,0,1-.949-.911A3.035,3.035,0,0,1,47.669,5.441Zm1.356.071a1.657,1.657,0,0,0,.353,1.139,1.154,1.154,0,0,0,1.74,0A1.679,1.679,0,0,0,51.468,5.5a1.649,1.649,0,0,0-.351-1.13,1.154,1.154,0,0,0-1.74,0A1.657,1.657,0,0,0,49.024,5.511Zm8.131,2.5V7.263a1.927,1.927,0,0,1-.718.631,2.013,2.013,0,0,1-.939.231,1.836,1.836,0,0,1-.9-.221,1.306,1.306,0,0,1-.579-.621,2.773,2.773,0,0,1-.179-1.106V3.011h1.323v2.3A6.372,6.372,0,0,0,55.232,6.6a.7.7,0,0,0,.266.377.818.818,0,0,0,.49.139,1.041,1.041,0,0,0,.607-.186.946.946,0,0,0,.367-.461,5.355,5.355,0,0,0,.1-1.349V3.011h1.323v5Zm7.185,0H63.111V7.277a1.985,1.985,0,0,1-.723.638,1.854,1.854,0,0,1-.84.21,1.9,1.9,0,0,1-1.476-.694,2.825,2.825,0,0,1-.614-1.937,2.792,2.792,0,0,1,.6-1.933A1.949,1.949,0,0,1,61.567,2.9a1.872,1.872,0,0,1,1.45.7V1.109H64.34ZM60.809,5.4a2.289,2.289,0,0,0,.221,1.158,1,1,0,0,0,.895.518.974.974,0,0,0,.777-.388,1.793,1.793,0,0,0,.32-1.161,1.962,1.962,0,0,0-.311-1.241.983.983,0,0,0-.8-.379.994.994,0,0,0-.789.374A1.691,1.691,0,0,0,60.809,5.4Zm7.5,2.608v-6.9H70.4l1.252,4.708L72.89,1.109h2.09v6.9H73.686V2.578l-1.37,5.433H70.974L69.608,2.578V8.011ZM79.251,6.42l1.318.221a2.162,2.162,0,0,1-.8,1.1,2.358,2.358,0,0,1-1.372.379,2.237,2.237,0,0,1-1.93-.852,2.863,2.863,0,0,1-.494-1.723,2.761,2.761,0,0,1,.65-1.947,2.14,2.14,0,0,1,1.643-.7,2.219,2.219,0,0,1,1.761.737,3.26,3.26,0,0,1,.617,2.258H77.325a1.338,1.338,0,0,0,.32.916,1,1,0,0,0,.763.327.81.81,0,0,0,.523-.169A1.047,1.047,0,0,0,79.251,6.42Zm.075-1.337a1.274,1.274,0,0,0-.3-.873.955.955,0,0,0-1.4.016,1.221,1.221,0,0,0-.278.857Zm2.293-2.072h1.219v.683A1.962,1.962,0,0,1,84.4,2.9a1.678,1.678,0,0,1,.833.2,1.52,1.52,0,0,1,.579.6,2.31,2.31,0,0,1,.711-.6,1.744,1.744,0,0,1,.814-.2,1.814,1.814,0,0,1,.932.224,1.37,1.37,0,0,1,.57.657,2.849,2.849,0,0,1,.137,1.036v3.2H87.65V5.154a2.126,2.126,0,0,0-.137-.96.627.627,0,0,0-.565-.282.9.9,0,0,0-.523.169.94.94,0,0,0-.353.5,3.574,3.574,0,0,0-.108,1.033v2.4H84.641V5.271a3.8,3.8,0,0,0-.071-.942.6.6,0,0,0-.219-.315.692.692,0,0,0-.4-.1.964.964,0,0,0-.551.165.9.9,0,0,0-.351.476,3.535,3.535,0,0,0-.106,1.031V8.011H81.619Zm8.616,5v-6.9h1.323V3.6a1.872,1.872,0,0,1,1.45-.7,1.949,1.949,0,0,1,1.511.661,2.739,2.739,0,0,1,.6,1.9,2.891,2.891,0,0,1-.61,1.973,1.9,1.9,0,0,1-1.481.692,1.83,1.83,0,0,1-.845-.214,2.021,2.021,0,0,1-.718-.633v.734ZM91.548,5.4a2.126,2.126,0,0,0,.245,1.149,1.047,1.047,0,0,0,.913.527.936.936,0,0,0,.746-.374,1.842,1.842,0,0,0,.308-1.179A1.953,1.953,0,0,0,93.45,4.29a.983.983,0,0,0-.8-.379,1,1,0,0,0-.791.37A1.7,1.7,0,0,0,91.548,5.4ZM99.076,6.42l1.318.221a2.162,2.162,0,0,1-.8,1.1,2.358,2.358,0,0,1-1.372.379,2.237,2.237,0,0,1-1.93-.852,2.863,2.863,0,0,1-.494-1.723,2.761,2.761,0,0,1,.65-1.947,2.14,2.14,0,0,1,1.643-.7,2.219,2.219,0,0,1,1.761.737,3.26,3.26,0,0,1,.617,2.258H97.151a1.339,1.339,0,0,0,.32.916,1,1,0,0,0,.763.327.81.81,0,0,0,.523-.169A1.047,1.047,0,0,0,99.076,6.42Zm.075-1.337a1.274,1.274,0,0,0-.3-.873.955.955,0,0,0-1.4.016,1.221,1.221,0,0,0-.278.857Zm3.658,2.928h-1.323v-5h1.229v.711a2.137,2.137,0,0,1,.567-.664,1.044,1.044,0,0,1,.572-.16,1.679,1.679,0,0,1,.871.25l-.41,1.153a1.161,1.161,0,0,0-.621-.217.734.734,0,0,0-.471.153,1.046,1.046,0,0,0-.3.553,7.859,7.859,0,0,0-.111,1.676Zm4.859-2.571a2.7,2.7,0,0,1,.325-1.276,2.23,2.23,0,0,1,.92-.942,2.732,2.732,0,0,1,1.33-.325,2.5,2.5,0,0,1,1.86.737,2.546,2.546,0,0,1,.725,1.862,2.576,2.576,0,0,1-.732,1.881,2.474,2.474,0,0,1-1.843.746,2.9,2.9,0,0,1-1.311-.311,2.132,2.132,0,0,1-.949-.911A3.035,3.035,0,0,1,107.669,5.441Zm1.356.071a1.657,1.657,0,0,0,.353,1.139,1.154,1.154,0,0,0,1.74,0,1.679,1.679,0,0,0,.351-1.149,1.649,1.649,0,0,0-.351-1.13,1.154,1.154,0,0,0-1.74,0A1.657,1.657,0,0,0,109.025,5.511Zm4.261-2.5h.734V2.635a2.5,2.5,0,0,1,.134-.942,1.061,1.061,0,0,1,.494-.506,1.9,1.9,0,0,1,.911-.2,3.683,3.683,0,0,1,1.106.169l-.179.923a2.613,2.613,0,0,0-.607-.075.542.542,0,0,0-.412.134.777.777,0,0,0-.125.516v.353h.989v1.04h-.989v3.96H114.02V4.052h-.734Z" transform="translate(-4.666 -0.992)" fill="#4b4f54"/></g></g></g></g></svg>