<svg xmlns="http://www.w3.org/2000/svg" width="160" height="62" viewBox="0 0 160 62"><g transform="translate(-944 -701)"><rect width="160" height="62" rx="3" transform="translate(944 701)" fill="#71c5e8"/><text transform="translate(990 729)" fill="#001489" font-size="16" font-family="MuseoSans-500, Museo Sans" font-weight="500"><tspan x="0" y="0">Full episode </tspan><tspan x="0" y="19">information</tspan></text><g transform="translate(955 720)"><rect width="24" height="24" rx="12" fill="none"/><path d="M7.823,9.712a.735.735,0,0,0,0,1.067h0a.8.8,0,0,0,1.106,0l4.785-4.613a.919.919,0,0,0,0-1.333L8.929.221a.8.8,0,0,0-1.106,0h0a.735.735,0,0,0,0,1.067L11.41,4.746H.782A.769.769,0,0,0,0,5.5H0a.769.769,0,0,0,.782.754H11.41Z" transform="translate(5 7)" fill="#001489"/></g></g></svg>