<svg xmlns="http://www.w3.org/2000/svg" width="294" height="242" viewBox="0 0 294 242"><path d="M5,0H294a0,0,0,0,1,0,0V242a0,0,0,0,1,0,0H5a5,5,0,0,1-5-5V5A5,5,0,0,1,5,0Z" fill="#001489"/><g transform="translate(245 203)"><g transform="translate(0)"><rect width="16" height="16" rx="8" transform="translate(0)" fill="#fff"/></g><path d="M5.215,6.475a.49.49,0,0,0,0,.711h0a.535.535,0,0,0,.738,0l3.19-3.075a.613.613,0,0,0,0-.889L5.953.147a.535.535,0,0,0-.738,0h0a.49.49,0,0,0,0,.711L7.607,3.164H.522a.512.512,0,0,0-.522.5H0a.512.512,0,0,0,.522.5H7.607Z" transform="translate(3.333 4.667)" fill="#001489"/></g><g transform="translate(220.333 203)"><g transform="translate(-0.333)"><g transform="translate(0)"><rect width="16" height="16" rx="8" transform="translate(0)" fill="#fff"/></g></g><path d="M5.215,6.475a.49.49,0,0,0,0,.711h0a.535.535,0,0,0,.738,0l3.19-3.075a.613.613,0,0,0,0-.889L5.953.147a.535.535,0,0,0-.738,0h0a.49.49,0,0,0,0,.711L7.607,3.164H.522a.512.512,0,0,0-.522.5H0a.512.512,0,0,0,.522.5H7.607Z" transform="translate(12.667 12) rotate(180)" fill="#001489"/></g><g transform="translate(24 206)"><circle cx="4.5" cy="4.5" r="4.5" transform="translate(49)" fill="#fff" opacity="0.4"/><circle cx="4.5" cy="4.5" r="4.5" transform="translate(24)" fill="#fff" opacity="0.4"/><circle cx="4.5" cy="4.5" r="4.5" fill="#fff"/></g><text transform="translate(24 44)" fill="#fff" font-size="16" font-family="MuseoSans-300, Museo Sans" font-weight="300"><tspan x="0" y="15">UCB continues to proactively </tspan><tspan x="0" y="35">monitor the COVID-19 situation. </tspan><tspan x="0" y="55">To learn more about UCB’s </tspan><tspan x="0" y="75">preparedness, </tspan><tspan y="75" font-family="MuseoSans-900, Museo Sans" font-weight="900" text-decoration="underline">click here</tspan><tspan y="75">.</tspan></text><text transform="translate(201 22)" fill="#fff" font-size="16" font-family="MuseoSans-500, Museo Sans" font-weight="500"><tspan x="-72.624" y="0">ANNOUNCEMENTS</tspan></text><g transform="translate(8 4)"><rect width="26" height="26" rx="13" fill="none"/><path d="M6.964,5.417l3.869,3.869L9.286,10.833,5.417,6.964,1.548,10.833,0,9.286,3.869,5.417,0,1.548,1.548,0,5.417,3.869,9.286,0l1.548,1.548Z" transform="translate(7.583 7.583)" fill="#fff"/></g></svg>