<svg xmlns="http://www.w3.org/2000/svg" width="16" height="16" viewBox="0 0 16 16"><g transform="translate(0.333)"><g transform="translate(-0.333)"><g transform="translate(0)"><rect width="16" height="16" rx="8" transform="translate(0)" fill="#fff"/></g></g><path d="M5.215,6.475a.49.49,0,0,0,0,.711h0a.535.535,0,0,0,.738,0l3.19-3.075a.613.613,0,0,0,0-.889L5.953.147a.535.535,0,0,0-.738,0h0a.49.49,0,0,0,0,.711L7.607,3.164H.522a.512.512,0,0,0-.522.5H0a.512.512,0,0,0,.522.5H7.607Z" transform="translate(12.667 12) rotate(180)" fill="#001489"/></g></svg>