<svg xmlns="http://www.w3.org/2000/svg" width="20.197" height="22" viewBox="0 0 20.197 22"><g transform="translate(-8.891 -5.554)"><path d="M26.639,33.048H11.366a2.463,2.463,0,0,1-2.46-2.46V15.315a2.463,2.463,0,0,1,2.46-2.46H26.639a2.462,2.462,0,0,1,2.46,2.46V30.589A2.46,2.46,0,0,1,26.639,33.048ZM11.366,13.861a1.456,1.456,0,0,0-1.455,1.454V30.589a1.456,1.456,0,0,0,1.455,1.454H26.639A1.458,1.458,0,0,0,28.1,30.589V15.315a1.456,1.456,0,0,0-1.456-1.454Z" transform="translate(-0.012 -5.494)" fill="#787b7f"/><path d="M30.915,9.978a.5.5,0,0,1-.5-.5V6.059a.5.5,0,0,1,1.005,0V9.476A.506.506,0,0,1,30.915,9.978Z" transform="translate(-16.196 -0.003)" fill="#787b7f"/><path d="M65.114,9.975a.5.5,0,0,1-.5-.5V6.056a.5.5,0,0,1,1.005,0V9.473A.5.5,0,0,1,65.114,9.975Z" transform="translate(-41.929)" fill="#787b7f"/><path d="M28.584,32.75H9.394a.5.5,0,1,1,0-1H28.584a.5.5,0,1,1,0,1Z" transform="translate(0 -19.71)" fill="#787b7f"/></g></svg>